<svg xmlns="http://www.w3.org/2000/svg" xmlns:xlink="http://www.w3.org/1999/xlink" xmlns:lucid="lucid" width="1802" height="2321.26"><g transform="translate(0 0)" lucid:page-tab-id="EX2X9mMR6fzr"><path d="M0 0h1802v2321.26H0z" fill="#6db1ff"/><path d="M37.23 925.87a6 6 0 0 1 6-6h1708.3a6 6 0 0 1 6 6V2274a6 6 0 0 1-6 6H43.22a6 6 0 0 1-6-6z" stroke="#000" stroke-opacity="0" stroke-width="4" fill="#f2f3f5"/><path d="M502.04 235.87a6 6 0 0 1 6-6h778.66a6 6 0 0 1 6 6v648a6 6 0 0 1-6 6H508.04a6 6 0 0 1-6-6z" stroke="#000" stroke-width="2" fill="#f2f3f5"/><path d="M1183.95 1565.87a6 6 0 0 1 6-6h394.8a6 6 0 0 1 6 6V2034a6 6 0 0 1-6 6h-394.8a6 6 0 0 1-6-6z" stroke="#000" stroke-width="2" fill="#ced4db"/><path d="M581 26a6 6 0 0 1 6-6h614.67a6 6 0 0 1 6 6v128a6 6 0 0 1-6 6H587a6 6 0 0 1-6-6z" stroke="#000" stroke-width="2" fill="#f2f3f5"/><path d="M1270.76 1146a6 6 0 0 1 6-6h308a6 6 0 0 1 6 6v328a6 6 0 0 1-6 6h-308a6 6 0 0 1-6-6zM200 1565.87a6 6 0 0 1 6-6h888a6 6 0 0 1 6 6V2114a6 6 0 0 1-6 6H206a6 6 0 0 1-6-6z" stroke="#000" stroke-width="2" fill="#ced4db"/><path d="M934.25 249.87c14.9 0 27 13.43 27 30 0 16.56-12.1 30-27 30h-81c-14.9 0-27-13.44-27-30 0-16.57 12.1-30 27-30z" stroke="#000" stroke-width="3" fill="#f5fbff"/><use xlink:href="#a" transform="matrix(1,0,0,1,831.2495084681149,254.86666666666667) translate(4.979012345679024 28.677777777777777)"/><path d="M471 46a6 6 0 0 1 6-6h840.75a6 6 0 0 1 6 6v46.15a6 6 0 0 1-6 6H477a6 6 0 0 1-6-6z" stroke="#000" stroke-opacity="0" stroke-width="2" fill="#fff" fill-opacity="0"/><use xlink:href="#b" transform="matrix(1,0,0,1,475,44) translate(220.41000000000003 33.95638888888888)"/><use xlink:href="#c" transform="matrix(1,0,0,1,475,44) translate(335.30135802469135 33.95638888888888)"/><use xlink:href="#d" transform="matrix(1,0,0,1,475,44) translate(432.63716049382714 33.95638888888888)"/><path d="M727.3 88.3h347.88M727.32 88.3h-1.02M1075.15 88.3h1.03" stroke="#224c72" stroke-width="2" fill="none"/><path d="M471 93.3a6 6 0 0 1 6-6h848a6 6 0 0 1 6 6v30.38a6 6 0 0 1-6 6H477a6 6 0 0 1-6-6z" stroke="#000" stroke-opacity="0" stroke-width="2" fill="#fff" fill-opacity="0"/><use xlink:href="#e" transform="matrix(1,0,0,1,475.00000000000045,91.3112769109052) translate(178.21956790123465 25.993425925925923)"/><use xlink:href="#f" transform="matrix(1,0,0,1,475.00000000000045,91.3112769109052) translate(292.57831275720173 25.993425925925923)"/><use xlink:href="#g" transform="matrix(1,0,0,1,475.00000000000045,91.3112769109052) translate(395.2004320987654 25.993425925925923)"/><use xlink:href="#h" transform="matrix(1,0,0,1,475.00000000000045,91.3112769109052) translate(474.2759465020576 25.993425925925923)"/><use xlink:href="#i" transform="matrix(1,0,0,1,475.00000000000045,91.3112769109052) translate(488.4332510288066 25.993425925925923)"/><use xlink:href="#j" transform="matrix(1,0,0,1,475.00000000000045,91.3112769109052) translate(574.9908641975309 25.993425925925923)"/><path d="M527.62 535.87a6 6 0 0 1 6-6h148a6 6 0 0 1 6 6v114c-26.72-20.04-43.36-20.04-53.44-20.04-16 0-37.28 20.04-53.28 20.04-9.92 0-26.72 0-53.28-20.04z" stroke="#000" stroke-width="3" fill="#fff"/><use xlink:href="#k" transform="matrix(1,0,0,1,532.6182531196732,534.8666666666667) translate(14.149999999999991 48.15)"/><use xlink:href="#l" transform="matrix(1,0,0,1,532.6182531196732,534.8666666666667) translate(84 48.15)"/><path d="M607.62 642.3v21.57a6 6 0 0 0 6 6h279a6 6 0 0 1 6 6v14" stroke="#224c72" stroke-width="2" fill="none"/><path d="M608.62 642.34h-2v-.53l2-1z" stroke="#224c72" stroke-width=".05" fill="#224c72"/><path d="M898.63 705.13L894 690.87h9.26z" stroke="#224c72" stroke-width="2" fill="#224c72"/><path d="M720.8 535.87a6 6 0 0 1 6-6h148a6 6 0 0 1 6 6v114c-26.73-20.04-43.37-20.04-53.45-20.04-16 0-37.28 20.04-53.28 20.04-9.92 0-26.72 0-53.28-20.04z" stroke="#000" stroke-width="3" fill="#fff"/><use xlink:href="#m" transform="matrix(1,0,0,1,725.7892538625961,534.8666666666667) translate(11.074999999999996 48.15)"/><use xlink:href="#n" transform="matrix(1,0,0,1,725.7892538625961,534.8666666666667) translate(79.025 48.15)"/><path d="M800.8 642.3v21.57a6 6 0 0 0 6 6h85.83a6 6 0 0 1 6 6v14" stroke="#224c72" stroke-width="2" fill="none"/><path d="M801.8 642.34h-2v-.53l2-1z" stroke="#224c72" stroke-width=".05" fill="#224c72"/><path d="M898.63 705.13L894 690.87h9.26z" stroke="#224c72" stroke-width="2" fill="#224c72"/><path d="M974.88 789.87c0 44.18-34.14 80-76.25 80-42.1 0-76.25-35.82-76.25-80 0-44.2 34.14-80 76.25-80 42.1 0 76.25 35.8 76.25 80z" stroke="#000" stroke-width="3" fill="#f5fbff"/><use xlink:href="#m" transform="matrix(1,0,0,1,827.3799023218946,714.8666666666668) translate(11.099999999999994 80.025)"/><use xlink:href="#l" transform="matrix(1,0,0,1,827.3799023218946,714.8666666666668) translate(79.05 80.025)"/><path d="M896.54 963.88a6.66 6.66 0 0 1 8.92 0l79.95 72.04a5.4 5.4 0 0 1 0 8.03l-79.94 72.03a6.66 6.66 0 0 1-8.92 0l-79.95-72.03a5.4 5.4 0 0 1 0-8.03z" stroke="#000" stroke-width="3" fill="#ffd9d9"/><use xlink:href="#o" transform="matrix(1,0,0,1,817.127574043919,964.8666666666667) translate(40.754999999999995 66.30625)"/><use xlink:href="#p" transform="matrix(1,0,0,1,817.127574043919,964.8666666666667) translate(60.53 87.90625)"/><path d="M627.2 1166a6 6 0 0 1 6-6H777.8a6 6 0 0 1 6 6v52.6a6 6 0 0 1-6 6H633.2a6 6 0 0 1-6-6z" stroke="#000" stroke-width="3" fill="#ffd9d9"/><use xlink:href="#q" transform="matrix(1,0,0,1,632.188545162187,1164.9999999999998) translate(23.599999999999994 21.275)"/><use xlink:href="#r" transform="matrix(1,0,0,1,632.188545162187,1164.9999999999998) translate(41.074999999999996 42.875)"/><path d="M1040 1166a6 6 0 0 1 6-6h144.63a6 6 0 0 1 6 6v52.6a6 6 0 0 1-6 6H1046a6 6 0 0 1-6-6z" stroke="#000" stroke-width="3" fill="#ffd9d9"/><use xlink:href="#s" transform="matrix(1,0,0,1,1045,1165) translate(6.1499999999999915 31.5875)"/><path d="M200 1506a6 6 0 0 1 6-6h351.07a6 6 0 0 1 6 6v67.87a6 6 0 0 1-6 6H206a6 6 0 0 1-6-6z" stroke="#000" stroke-opacity="0" stroke-width="3" fill="#fff" fill-opacity="0"/><use xlink:href="#t" transform="matrix(1,0,0,1,205,1505) translate(8.72160493827164 40.788888888888884)"/><use xlink:href="#u" transform="matrix(1,0,0,1,205,1505) translate(121.6888888888889 40.788888888888884)"/><path d="M36.93 866a6 6 0 0 1 6-6h288a6 6 0 0 1 6 6v67.87a6 6 0 0 1-6 6h-288a6 6 0 0 1-6-6z" stroke="#000" stroke-opacity="0" stroke-width="3" fill="#fff" fill-opacity="0"/><use xlink:href="#v" transform="matrix(1,0,0,1,41.92835493093992,865) translate(4.270679012345738 40.788888888888884)"/><use xlink:href="#w" transform="matrix(1,0,0,1,41.92835493093992,865) translate(123.62623456790126 40.788888888888884)"/><path d="M502.04 176a6 6 0 0 1 6-6h168a6 6 0 0 1 6 6v67.87a6 6 0 0 1-6 6h-168a6 6 0 0 1-6-6z" stroke="#000" stroke-opacity="0" stroke-width="3" fill="#fff" fill-opacity="0"/><use xlink:href="#x" transform="matrix(1,0,0,1,507.0444019504332,175.00000000000006) translate(2.1950617283951033 40.788888888888884)"/><path d="M1229.02 1606a6 6 0 0 1 6-6h304.67a6 6 0 0 1 6 6v88a6 6 0 0 1-6 6H1235a6 6 0 0 1-6-6z" stroke="#000" stroke-width="3" fill="#ffd9d9"/><use xlink:href="#y" transform="matrix(1,0,0,1,1241.0173706796022,1612) translate(21.724999999999994 40.525)"/><use xlink:href="#z" transform="matrix(1,0,0,1,1241.0173706796022,1612) translate(98.225 40.525)"/><use xlink:href="#A" transform="matrix(1,0,0,1,1241.0173706796022,1612) translate(178.07500000000002 40.525)"/><path d="M1229.02 1766a6 6 0 0 1 6-6h304.67a6 6 0 0 1 6 6v88a6 6 0 0 1-6 6H1235a6 6 0 0 1-6-6z" stroke="#000" stroke-width="3" fill="#ffd9d9"/><use xlink:href="#y" transform="matrix(1,0,0,1,1241.0173706796022,1772) translate(61.32499999999999 40.525)"/><use xlink:href="#B" transform="matrix(1,0,0,1,1241.0173706796022,1772) translate(137.825 40.525)"/><path d="M1432.85 1920c17.67 0 32 17.9 32 40s-14.33 40-32 40h-96c-17.67 0-32-17.9-32-40s14.33-40 32-40z" stroke="#000" stroke-width="3" fill="#ffd9d9"/><use xlink:href="#C" transform="matrix(1,0,0,1,1309.849282237235,1924.9999999999995) translate(56.05 38.4625)"/><path d="M1183.95 1510.6a6 6 0 0 1 6-6h228a6 6 0 0 1 6 6v67.87a6 6 0 0 1-6 6h-228a6 6 0 0 1-6-6z" stroke="#000" stroke-opacity="0" stroke-width="3" fill="#fff" fill-opacity="0"/><use xlink:href="#D" transform="matrix(1,0,0,1,1188.9505940142894,1509.6028710510632) translate(5.605555555555583 40.788888888888884)"/><use xlink:href="#E" transform="matrix(1,0,0,1,1188.9505940142894,1509.6028710510632) translate(88.81481481481482 40.788888888888884)"/><path d="M1387.35 1702.5v37.5" stroke="#000" stroke-width="2" fill="none"/><path d="M1388.35 1702.53h-2v-1.03h2z" stroke="#000" stroke-width=".05"/><path d="M1387.35 1755.26l-4.63-14.26h9.27z" stroke="#000" stroke-width="2"/><path d="M1387.35 1862.5v37.5" stroke="#000" stroke-width="2" fill="none"/><path d="M1388.35 1862.53h-2v-1.03h2z" stroke="#000" stroke-width=".05"/><path d="M1387.35 1915.26l-4.63-14.26h9.27z" stroke="#000" stroke-width="2"/><path d="M1400 252a12 12 0 0 1 12-12h314.4a12 12 0 0 1 12 12v376a12 12 0 0 1-12 12H1412a12 12 0 0 1-12-12z" stroke="#dfe3e8" stroke-width="2" fill="#f2f3f5"/><path d="M1468.65 363.67c0-.83.68-1.5 1.52-1.5h37.35c.84 0 1.52.67 1.52 1.5v27.26c0 .84-.68 1.52-1.52 1.52h-37.35c-.84 0-1.52-.68-1.52-1.52zM1487.63 427.68c.73-.55 1.7-.55 2.42 0l17.77 13.33c.5.38.6 1.1.23 1.6-.07.1-.13.16-.23.23l-17.76 13.32c-.74.55-1.7.55-2.43 0l-17.77-13.32c-.5-.38-.6-1.1-.22-1.6.06-.08.13-.15.22-.22z" stroke="#000" stroke-width="2" fill="#ffd9d9"/><path d="M1468.65 492.9c0-.83.68-1.5 1.52-1.5h37.35c.84 0 1.52.67 1.52 1.5v28.77c-6.75-5.05-10.95-5.05-13.5-5.05-4.03 0-9.4 5.05-13.44 5.05-2.5 0-6.74 0-13.45-5.05z" stroke="#000" stroke-width="2" fill="#fff"/><path d="M1468.65 557.5c0-.82.68-1.5 1.52-1.5h37.35c.84 0 1.52.68 1.52 1.5v27.27c0 .84-.68 1.52-1.52 1.52h-37.35c-.84 0-1.52-.7-1.52-1.53z" stroke="#000" stroke-width="2" fill="#edf5ff"/><path d="M1472.7 556v30.3M1505 556v30.3" stroke="#000" stroke-width="2" fill="none"/><use xlink:href="#F" transform="matrix(1,0,0,1,1464.6135995669717,288.4601996752288) translate(4.747134588238468 29.240019181542493)"/><use xlink:href="#G" transform="matrix(1,0,0,1,1464.6135995669717,288.4601996752288) translate(94.33109773806387 29.240019181542493)"/><use xlink:href="#H" transform="matrix(1,0,0,1,1537.303899079815,353.07379924220055) translate(0 28.907178894900007)"/><use xlink:href="#I" transform="matrix(1,0,0,1,1537.303899079815,353.07379924220055) translate(81.4876231772469 28.907178894900007)"/><use xlink:href="#J" transform="matrix(1,0,0,1,1537.303899079815,417.6873988091723) translate(0 28.907178894900007)"/><use xlink:href="#I" transform="matrix(1,0,0,1,1537.303899079815,417.6873988091723) translate(86.03089308991686 28.907178894900007)"/><use xlink:href="#K" transform="matrix(1,0,0,1,1537.303899079815,482.30099837614404) translate(0 29.53213954483841)"/><use xlink:href="#L" transform="matrix(1,0,0,1,1537.303899079815,546.9145979431157) translate(0 16.12171156893819)"/><use xlink:href="#M" transform="matrix(1,0,0,1,1537.303899079815,546.9145979431157) translate(0 41.89413629160064)"/><path d="M913.96 535.87a6 6 0 0 1 6-6h148a6 6 0 0 1 6 6v108a6 6 0 0 1-6 6h-148a6 6 0 0 1-6-6z" stroke="#000" stroke-width="3" fill="#f5fbff"/><use xlink:href="#N" transform="matrix(1,0,0,1,925.9602546055189,541.8666666666667) translate(36.224999999999994 50.4)"/><path d="M1107.13 535.87a6 6 0 0 1 6-6h148a6 6 0 0 1 6 6v108a6 6 0 0 1-6 6h-148a6 6 0 0 1-6-6z" stroke="#000" stroke-width="3" fill="#f5fbff"/><use xlink:href="#O" transform="matrix(1,0,0,1,1119.131255348442,541.8666666666667) translate(45.05 50.4)"/><path d="M993.96 652.37v11.5a6 6 0 0 1-6 6H902.9a6 6 0 0 0-6 6v14.04" stroke="#000" stroke-width="2" fill="none"/><path d="M994.96 652.4h-2v-1.03h2z" stroke="#000" stroke-width=".05"/><path d="M896.9 705.17l-4.62-14.26h9.27z" stroke="#000" stroke-width="2"/><path d="M1189.96 652.37v11.5a6 6 0 0 1-6 6H904.63a6 6 0 0 0-6 6v14" stroke="#000" stroke-width="2" fill="none"/><path d="M1190.96 652.4h-2v-1.03h2z" stroke="#000" stroke-width=".05"/><path d="M898.63 705.13L894 690.87h9.26z" stroke="#000" stroke-width="2"/><path d="M810.7 355.87a6 6 0 0 1 6-6h148a6 6 0 0 1 6 6v108a6 6 0 0 1-6 6h-148a6 6 0 0 1-6-6z" stroke="#000" stroke-width="3" fill="#f5fbff"/><path d="M826.7 349.87v120m128-120v120" stroke="#000" stroke-width="3" fill="none"/><use xlink:href="#P" transform="matrix(1,0,0,1,835.7109311658683,354.8666666666667) translate(10.79999999999999 47.8)"/><use xlink:href="#Q" transform="matrix(1,0,0,1,835.7109311658683,354.8666666666667) translate(30.049999999999997 69.4)"/><path d="M893.75 312.37v17.5" stroke="#000" stroke-width="2" fill="none"/><path d="M894.75 312.4h-2v-1.03h2z" stroke="#000" stroke-width=".05"/><path d="M893.75 345.13l-4.64-14.26h9.28z" stroke="#000" stroke-width="2"/><path d="M890.7 472.37v21.5a6 6 0 0 1-6 6H613.63a6 6 0 0 0-6 6v4" stroke="#000" stroke-width="2" fill="none"/><path d="M891.7 472.4h-2v-1.03h2z" stroke="#000" stroke-width=".05"/><path d="M607.62 525.13l-4.64-14.26h9.27z" stroke="#000" stroke-width="2"/><path d="M890.7 472.37v21.5a6 6 0 0 1-6 6h-77.9a6 6 0 0 0-6 6v4" stroke="#000" stroke-width="2" fill="none"/><path d="M891.7 472.4h-2v-1.03h2z" stroke="#000" stroke-width=".05"/><path d="M800.8 525.13l-4.65-14.26h9.27z" stroke="#000" stroke-width="2"/><path d="M890.7 472.37v21.5a6 6 0 0 0 6 6h91.26a6 6 0 0 1 6 6v4" stroke="#000" stroke-width="2" fill="none"/><path d="M891.7 472.4h-2v-1.03h2z" stroke="#000" stroke-width=".05"/><path d="M993.96 525.13l-4.63-14.26h9.27z" stroke="#000" stroke-width="2"/><path d="M890.7 472.37v21.5a6 6 0 0 0 6 6h284.43a6 6 0 0 1 6 6v4" stroke="#000" stroke-width="2" fill="none"/><path d="M891.7 472.4h-2v-1.03h2z" stroke="#000" stroke-width=".05"/><path d="M1187.13 525.13l-4.63-14.26h9.27z" stroke="#000" stroke-width="2"/><path d="M898.63 872.37V931.36" stroke="#000" stroke-width="2" fill="none"/><path d="M898.6 871.37h.68l.35-.02v1.04h-2v-1.06z" stroke="#000" stroke-width=".05"/><path d="M898.63 946.63L894 932.36h9.26z" stroke="#000" stroke-width="2"/><path d="M812.3 1039.93H704.94a6 6 0 0 0-6 6V1140" stroke="#000" stroke-width="2" fill="none"/><path d="M813.3 1039.93l.08 1h-1.1v-2h1.1z" stroke="#000" stroke-width=".05"/><path d="M698.95 1155.26L694.3 1141h9.28z" stroke="#000" stroke-width="2"/><path d="M989.7 1039.93h115.78a6 6 0 0 1 6 6V1140" stroke="#000" stroke-width="2" fill="none"/><path d="M989.73 1040.93h-1.1l.08-1-.08-1h1.1z" stroke="#000" stroke-width=".05"/><path d="M1111.48 1155.26l-4.63-14.26h9.27z" stroke="#000" stroke-width="2"/><path d="M1112.57 1284.22a6.06 6.06 0 0 1 8.52 0l82.3 81.56a5.94 5.94 0 0 1 0 8.44l-82.3 81.56a6.06 6.06 0 0 1-8.53 0l-82.32-81.56a5.94 5.94 0 0 1 0-8.44z" stroke="#000" stroke-width="3" fill="#ffd9d9"/><use xlink:href="#R" transform="matrix(1,0,0,1,1030.9877314259118,1285) translate(77.005 56.9)"/><use xlink:href="#S" transform="matrix(1,0,0,1,1030.9877314259118,1285) translate(35.60499999999999 78.5)"/><use xlink:href="#T" transform="matrix(1,0,0,1,1030.9877314259118,1285) translate(53.08 100.1)"/><use xlink:href="#U" transform="matrix(1,0,0,1,1030.9877314259118,1285) translate(47.055 121.69999999999999)"/><path d="M1118.32 1227.1v35.53" stroke="#000" stroke-width="2" fill="none"/><path d="M1119.32 1227.1h-2v-1h2z" stroke="#000" stroke-width=".05"/><path d="M1118.32 1277.9l-4.64-14.27h9.27z" stroke="#000" stroke-width="2"/><path d="M1117.83 1574.04l-.08 1.06-.26 1.06-.43 1.02-.57.94-.72.83-.83.72-.94.57-1 .42-1.07.26-1.06.08H369.1l-.82.07-.77.18-.7.3-.68.4-.6.52-.5.6-.4.66-.3.73-.2.76-.06.82V1620h-2v-34.04l.08-1.06.26-1.06.42-1.02.57-.94.7-.83.84-.72.94-.57 1-.42 1.08-.26 1.06-.08h741.77l.8-.07.77-.18.73-.3.67-.4.6-.52.5-.6.4-.66.3-.73.2-.76.06-.82v-64.26h2zm0-88.34h-2v-25.66h2z" stroke="#000" stroke-width=".05"/><path d="M1116.83 1459.04l1-.08v1.1h-2v-1.1z"/><path d="M1116.83 1459l1.03-.07v1.16h-2.05v-1.17zm-.97 1.04h1.95v-1.06l-.97.08-.97-.08z" stroke="#000" stroke-width=".05"/><path d="M363.06 1635.26l-4.64-14.26h9.27z"/><path d="M363.06 1638.5l-6-18.5h12zm-3.26-16.5l3.26 10.03 3.26-10.03z" stroke="#000" stroke-width=".05"/><use xlink:href="#V" transform="matrix(1,0,0,1,1100.5244869738835,1485.7039609176556) translate(0 16)"/><path d="M1221.25 1371h-13.58v-2h13.58zm55.08 0h-29.58v-2h29.58z" stroke="#000" stroke-width=".05"/><path d="M1207.7 1371h-1.1l.08-1-.08-1h1.1z"/><path d="M1207.73 1371.03h-1.16l.08-1.03-.08-1.03h1.16zm-1.1-2l.07.97-.08.97h1.06v-1.94z" stroke="#000" stroke-width=".05"/><path d="M1291.6 1370l-14.27 4.63v-9.27z"/><path d="M1294.83 1370l-18.5 6v-12zm-16.5 3.26l10.03-3.26-10.03-3.26z" stroke="#000" stroke-width=".05"/><use xlink:href="#W" transform="matrix(1,0,0,1,1221.25,1358) translate(0 16)"/><path d="M1296.33 1301a6 6 0 0 1 6-6h228a6 6 0 0 1 6 6v138a6 6 0 0 1-6 6h-228a6 6 0 0 1-6-6z" stroke="#000" stroke-width="3" fill="#ffd9d9"/><use xlink:href="#X" transform="matrix(1,0,0,1,1308.3303522836245,1307) translate(37.575 45.9)"/><use xlink:href="#Y" transform="matrix(1,0,0,1,1308.3303522836245,1307) translate(95.525 45.9)"/><use xlink:href="#Z" transform="matrix(1,0,0,1,1308.3303522836245,1307) translate(153.825 45.9)"/><use xlink:href="#aa" transform="matrix(1,0,0,1,1308.3303522836245,1307) translate(6.299999999999983 67.5)"/><use xlink:href="#ab" transform="matrix(1,0,0,1,1308.3303522836245,1307) translate(99.49999999999999 67.5)"/><use xlink:href="#ac" transform="matrix(1,0,0,1,1308.3303522836245,1307) translate(136.85 67.5)"/><use xlink:href="#ad" transform="matrix(1,0,0,1,1308.3303522836245,1307) translate(41.57499999999999 89.10000000000001)"/><use xlink:href="#ae" transform="matrix(1,0,0,1,1308.3303522836245,1307) translate(64.52499999999999 89.10000000000001)"/><use xlink:href="#af" transform="matrix(1,0,0,1,1308.3303522836245,1307) translate(94.475 89.10000000000001)"/><path d="M1416.33 1292.5V1256a6 6 0 0 0-6-6h-273.5" stroke="#000" stroke-width="2" fill="none"/><path d="M1417.33 1293.5h-2v-1.03h2z" stroke="#000" stroke-width=".05"/><path d="M1121.55 1250l14.27-4.63v9.27z" stroke="#000" stroke-width="2"/><path d="M1240.76 1161.4a6 6 0 0 1 6-6h368a6 6 0 0 1 6 6v57.2a6 6 0 0 1-6 6h-368a6 6 0 0 1-6-6z" stroke="#000" stroke-opacity="0" stroke-width="3" fill="#fff" fill-opacity="0"/><use xlink:href="#ag" transform="matrix(1,0,0,1,1245.7565011143847,1160.3885157957482) translate(47.09135802469143 21.70555555555555)"/><use xlink:href="#ah" transform="matrix(1,0,0,1,1245.7565011143847,1160.3885157957482) translate(220.84876543209876 21.70555555555555)"/><use xlink:href="#ai" transform="matrix(1,0,0,1,1245.7565011143847,1160.3885157957482) translate(79.23055555555561 48.63888888888887)"/><use xlink:href="#aj" transform="matrix(1,0,0,1,1245.7565011143847,1160.3885157957482) translate(209.9070987654321 48.63888888888887)"/><path d="M255.12 1646a6 6 0 0 1 6-6H465a6 6 0 0 1 6 6v108a6 6 0 0 1-6 6H261.12a6 6 0 0 1-6-6z" stroke="#000" stroke-width="3" fill="#ffd9d9"/><use xlink:href="#ak" transform="matrix(1,0,0,1,267.116900093127,1652) translate(6.199999999999989 29.4)"/><use xlink:href="#al" transform="matrix(1,0,0,1,267.116900093127,1652) translate(94.95 29.4)"/><use xlink:href="#am" transform="matrix(1,0,0,1,267.116900093127,1652) translate(2.325000000000003 51)"/><use xlink:href="#an" transform="matrix(1,0,0,1,267.116900093127,1652) translate(24.325000000000003 51)"/><use xlink:href="#ao" transform="matrix(1,0,0,1,267.116900093127,1652) translate(143.825 51)"/><use xlink:href="#ap" transform="matrix(1,0,0,1,267.116900093127,1652) translate(57.074999999999996 72.60000000000001)"/><use xlink:href="#aq" transform="matrix(1,0,0,1,267.116900093127,1652) translate(97.975 72.60000000000001)"/><path d="M572 1636a6 6 0 0 1 6-6h181.33a6 6 0 0 1 6 6v134c-32.3-23.38-52.4-23.38-64.57-23.38-19.34 0-45.05 23.38-64.38 23.38-12 0-32.3 0-64.38-23.38z" stroke="#000" stroke-width="3" fill="#fff"/><use xlink:href="#ar" transform="matrix(1,0,0,1,576.9999999999995,1635) translate(10.349999999999994 47.8375)"/><use xlink:href="#as" transform="matrix(1,0,0,1,576.9999999999995,1635) translate(49.099999999999994 69.4375)"/><path d="M255.12 1920.8a6 6 0 0 1 6-6h213.14a6 6 0 0 1 6 6v118.8a6 6 0 0 1-6 6H261.12a6 6 0 0 1-6-6z" stroke="#000" stroke-width="3" fill="#ffd9d9"/><use xlink:href="#ak" transform="matrix(1,0,0,1,267.116900093127,1926.802871051063) translate(33.14999999999999 57.86875)"/><use xlink:href="#at" transform="matrix(1,0,0,1,267.116900093127,1926.802871051063) translate(121.9 57.86875)"/><path d="M572 1918.9a6 6 0 0 1 6-6h181.33a6 6 0 0 1 6 6v128.6c-32.3-22.48-52.4-22.48-64.57-22.48-19.34 0-45.05 22.48-64.38 22.48-12 0-32.3 0-64.38-22.48z" stroke="#000" stroke-width="3" fill="#fff"/><use xlink:href="#au" transform="matrix(1,0,0,1,576.9999999999995,1917.8990741224184) translate(1.6500000000000057 56.24375)"/><use xlink:href="#av" transform="matrix(1,0,0,1,576.9999999999995,1917.8990741224184) translate(41.60000000000001 56.24375)"/><use xlink:href="#aw" transform="matrix(1,0,0,1,576.9999999999995,1917.8990741224184) translate(144.4 56.24375)"/><path d="M935.64 1889.72a6.34 6.34 0 0 1 8.72 0l91.28 86.36a5.68 5.68 0 0 1 0 8.24l-91.28 86.36a6.34 6.34 0 0 1-8.72 0l-91.28-86.36a5.68 5.68 0 0 1 0-8.24z" stroke="#000" stroke-width="3" fill="#ffd9d9"/><g><use xlink:href="#ax" transform="matrix(1,0,0,1,845.0000000000001,1890.597638596887) translate(30.105 81.9)"/><use xlink:href="#ap" transform="matrix(1,0,0,1,845.0000000000001,1890.597638596887) translate(72.055 81.9)"/><use xlink:href="#ay" transform="matrix(1,0,0,1,845.0000000000001,1890.597638596887) translate(112.95500000000001 81.9)"/><use xlink:href="#az" transform="matrix(1,0,0,1,845.0000000000001,1890.597638596887) translate(43.30499999999999 103.5)"/><use xlink:href="#aA" transform="matrix(1,0,0,1,845.0000000000001,1890.597638596887) translate(136.705 103.5)"/></g><path d="M935.64 1609.52a6.34 6.34 0 0 1 8.72 0l91.28 86.36a5.68 5.68 0 0 1 0 8.24l-91.28 86.36a6.34 6.34 0 0 1-8.72 0l-91.28-86.36a5.68 5.68 0 0 1 0-8.24z" stroke="#000" stroke-width="3" fill="#ffd9d9"/><g><use xlink:href="#aB" transform="matrix(1,0,0,1,845.0000000000002,1610.3971289489373) translate(28.779999999999998 81.9)"/><use xlink:href="#aC" transform="matrix(1,0,0,1,845.0000000000002,1610.3971289489373) translate(34.83 103.5)"/><use xlink:href="#aD" transform="matrix(1,0,0,1,845.0000000000002,1610.3971289489373) translate(82.73 103.5)"/></g><path d="M473.5 1700H552" stroke="#000" stroke-width="2" fill="none"/><path d="M473.53 1701h-1.03v-2h1.03z" stroke="#000" stroke-width=".05"/><path d="M567.26 1700l-14.26 4.63v-9.27z" stroke="#000" stroke-width="2"/><path d="M767.83 1700.28h54.77" stroke="#000" stroke-width="2" fill="none"/><path d="M767.85 1701.28h-1.02v-2h1.02z" stroke="#000" stroke-width=".05"/><path d="M837.87 1700.28l-14.27 4.63v-9.26z" stroke="#000" stroke-width="2"/><path d="M941 1844.04l-.08 1.06-.26 1.06-.42 1.02-.57.94-.72.83-.83.72-.94.57-1.02.42-1.06.26-1.06.08h-560.3l-.84.07-.76.18-.72.3-.67.4-.6.52-.5.6-.4.66-.3.73-.2.76-.06.82v38.76h-2v-38.84l.07-1.06.26-1.06.42-1.02.57-.94.72-.83.83-.72.94-.57 1.02-.42 1.07-.26 1.05-.08h560.3l.83-.07.76-.18.73-.3.67-.4.6-.52.5-.6.4-.66.3-.73.2-.76.06-.82v-8.85h2zm0-32.93h-2v-16.38h2z" stroke="#000" stroke-width=".05"/><path d="M940 1793.72l1-.08v1.1h-2v-1.1z"/><path d="M940 1793.7l1.02-.08v1.15H939v-1.15zm-.98 1.02H941v-1.05l-.98.07-.98-.07z" stroke="#000" stroke-width=".05"/><path d="M367.7 1910.07l-4.65-14.27h9.27z"/><path d="M367.7 1913.3l-6.02-18.5h12.02zm-3.27-16.5l3.26 10.03 3.25-10.03z" stroke="#000" stroke-width=".05"/><g><use xlink:href="#V" transform="matrix(1,0,0,1,923.6944444432363,1811.111958779864) translate(0 16)"/></g><path d="M482.76 1980.2H552" stroke="#000" stroke-width="2" fill="none"/><path d="M482.78 1981.2h-1.02v-2h1.02z" stroke="#000" stroke-width=".05"/><path d="M567.26 1980.2l-14.26 4.64v-9.27z" stroke="#000" stroke-width="2"/><path d="M767.83 1980.47h54.77" stroke="#000" stroke-width="2" fill="none"/><path d="M767.85 1981.47h-1.02v-2h1.02z" stroke="#000" stroke-width=".05"/><path d="M837.86 1980.47l-14.26 4.63v-9.27z" stroke="#000" stroke-width="2"/><path d="M705.5 1227.1v334.4" stroke="#000" stroke-width="2" fill="none"/><path d="M706.5 1227.1h-2v-1h2z" stroke="#000" stroke-width=".05"/><path d="M705.5 1576.76l-4.63-14.26h9.27z" stroke="#000" stroke-width="2"/><path d="M1045.84 1981.7h-5.42v-3h5.42zm161.06-330.2h-67.62l-.76.06-.7.16-.64.27-.6.36-.54.46-.46.54-.37.6-.26.65-.16.7-.06.76v318.2l-.1 1.1-.26 1.16-.45 1.1-.6 1-.77.9-.9.75-1 .62-1.1.44-1.14.27-1.12.1h-48.46v-3h48.34l.76-.06.7-.16.64-.27.6-.36.54-.46.46-.54.37-.6.26-.65.16-.7.06-.76v-318.2l.1-1.1.26-1.16.45-1.1.62-1 .76-.9.9-.75 1-.62 1.1-.44 1.15-.27 1.1-.1h67.75z" stroke="#000" stroke-width=".05"/><path d="M1040.46 1981.7h-1.72l.1-.34.08-1.16-.1-1.16-.08-.34h1.72z"/><path d="M1040.48 1981.73h-1.77l.1-.37.1-1.16-.1-1.16-.1-.36h1.78zm-1.7-3l.07.3.1 1.17-.1 1.17-.07.3h1.65v-2.94z" stroke="#000" stroke-width=".05"/><path d="M1222.66 1650l-14.26 4.63v-9.27z"/><path d="M1227.52 1650l-20.62 6.7v-13.4zm-17.62 2.57l7.9-2.57-7.9-2.57z" stroke="#000" stroke-width=".05"/><g><use xlink:href="#aE" transform="matrix(1,0,0,1,1045.8441656258724,1968.0671765355632) translate(0 16.177777777777774)"/></g><path d="M1026 2166a6 6 0 0 1 6-6h98a6 6 0 0 1 6 6v71.6a6 6 0 0 1-6 6h-98a6 6 0 0 1-6-6z" stroke="#000" stroke-width="3" fill="#ffd9d9"/><g><use xlink:href="#aF" transform="matrix(1,0,0,1,1037.9877314259118,2172) translate(38 33.15)"/></g><path d="M1081.5 1699.08l1.07.26 1 .42.95.57.84.72.7.83.58.94.42 1.02.26 1.06.08 1.06V2140h-2v-433.96l-.06-.82-.18-.76-.3-.73-.4-.67-.52-.6-.6-.5-.67-.4-.72-.3-.76-.2-.84-.06h-4.52v-2h4.6zm-41.58 1.92v-2h10.14v2z" stroke="#000" stroke-width=".05"/><path d="M1039.95 1701h-1.1l.07-1-.08-1h1.1z"/><path d="M1039.97 1701.03h-1.16l.1-1.03-.1-1.03h1.17zm-1.1-2l.08.97-.08.97h1.05v-1.94z" stroke="#000" stroke-width=".05"/><path d="M1086.4 2155.26l-4.63-14.26h9.27z"/><path d="M1086.4 2158.5l-6-18.5h12.02zm-3.26-16.5l3.26 10.03 3.26-10.03z" stroke="#000" stroke-width=".05"/><g><use xlink:href="#aG" transform="matrix(1,0,0,1,1050.0580941220744,1687.8666668876135) translate(0 16.177777777777777)"/></g><path d="M941 2195.76l.07.82.18.76.3.73.4.67.52.6.6.5.66.4.73.3.76.2.82.06H1006v2h-60.04l-1.06-.08-1.06-.26-1.02-.42-.94-.58-.83-.7-.72-.85-.57-.92-.42-1.02-.26-1.07-.08-1.06v-76.58h2zm0-100.77h-2v-20.08h2z" stroke="#000" stroke-width=".05"/><path d="M940 2073.92l1-.08v1.1h-2v-1.1z"/><path d="M940 2073.9l1.02-.08v1.15H939v-1.15zm-.98 1.02H941v-1.05l-.98.07-.98-.07z" stroke="#000" stroke-width=".05"/><path d="M1021.25 2201.8l-14.26 4.63v-9.27z"/><path d="M1024.5 2201.8l-18.5 6v-12zm-16.5 3.26l10.02-3.26-10.03-3.26z" stroke="#000" stroke-width=".05"/><g><use xlink:href="#aG" transform="matrix(1,0,0,1,927.1083333321251,2094.994090955347) translate(0 16.177777777777777)"/></g><defs><path fill="#1d262b" d="M212-179c-10-28-35-45-73-45-59 0-87 40-87 99 0 60 29 101 89 101 43 0 62-24 78-52l27 14C228-24 195 4 139 4 59 4 22-46 18-125c-6-104 99-153 187-111 19 9 31 26 39 46" id="aH"/><path fill="#1d262b" d="M232-93c-1 65-40 97-104 97C67 4 28-28 28-90v-158h33c8 89-33 224 67 224 102 0 64-133 71-224h33v155" id="aI"/><path fill="#1d262b" d="M185-189c-5-48-123-54-124 2 14 75 158 14 163 119 3 78-121 87-175 55-17-10-28-26-33-46l33-7c5 56 141 63 141-1 0-78-155-14-162-118-5-82 145-84 179-34 5 7 8 16 11 25" id="aJ"/><path fill="#1d262b" d="M127-220V0H93v-220H8v-28h204v28h-85" id="aK"/><path fill="#1d262b" d="M140-251c81 0 123 46 123 126C263-46 219 4 140 4 59 4 17-45 17-125s42-126 123-126zm0 227c63 0 89-41 89-101s-29-99-89-99c-61 0-89 39-89 99S79-25 140-24" id="aL"/><path fill="#1d262b" d="M240 0l2-218c-23 76-54 145-80 218h-23L58-218 59 0H30v-248h44l77 211c21-75 51-140 76-211h43V0h-30" id="aM"/><path fill="#1d262b" d="M30 0v-248h187v28H63v79h144v27H63v87h162V0H30" id="aN"/><path fill="#1d262b" d="M233-177c-1 41-23 64-60 70L243 0h-38l-65-103H63V0H30v-248c88 3 205-21 203 71zM63-129c60-2 137 13 137-47 0-61-80-42-137-45v92" id="aO"/><g id="a"><use transform="matrix(0.056172839506172835,0,0,0.056172839506172835,0,0)" xlink:href="#aH"/><use transform="matrix(0.056172839506172835,0,0,0.056172839506172835,14.548765432098763,0)" xlink:href="#aI"/><use transform="matrix(0.056172839506172835,0,0,0.056172839506172835,29.097530864197527,0)" xlink:href="#aJ"/><use transform="matrix(0.056172839506172835,0,0,0.056172839506172835,42.579012345679004,0)" xlink:href="#aK"/><use transform="matrix(0.056172839506172835,0,0,0.056172839506172835,54.487654320987644,0)" xlink:href="#aL"/><use transform="matrix(0.056172839506172835,0,0,0.056172839506172835,70.21604938271604,0)" xlink:href="#aM"/><use transform="matrix(0.056172839506172835,0,0,0.056172839506172835,87.01172839506171,0)" xlink:href="#aN"/><use transform="matrix(0.056172839506172835,0,0,0.056172839506172835,100.49320987654319,0)" xlink:href="#aO"/></g><path fill="#1d262b" d="M238-95c0 69-44 99-111 99C63 4 22-25 22-93v-155h51v151c-1 38 19 59 55 60 90 1 49-130 58-211h52v153" id="aP"/><path fill="#1d262b" d="M137-138c1-29-70-34-71-4 15 46 118 7 119 86 1 83-164 76-172 9l43-7c4 19 20 25 44 25 33 8 57-30 24-41C81-84 22-81 20-136c-2-80 154-74 161-7" id="aQ"/><path fill="#1d262b" d="M133-34C117-15 103 5 69 4 32 3 11-16 11-54c-1-60 55-63 116-61 1-26-3-47-28-47-18 1-26 9-28 27l-52-2c7-38 36-58 82-57s74 22 75 68l1 82c-1 14 12 18 25 15v27c-30 8-71 5-69-32zm-48 3c29 0 43-24 42-57-32 0-66-3-65 30 0 17 8 27 23 27" id="aR"/><path fill="#1d262b" d="M195-6C206 82 75 100 31 46c-4-6-6-13-8-21l49-6c3 16 16 24 34 25 40 0 42-37 40-79-11 22-30 35-61 35-53 0-70-43-70-97 0-56 18-96 73-97 30 0 46 14 59 34l2-30h47zm-90-29c32 0 41-27 41-63 0-35-9-62-40-62-32 0-39 29-40 63 0 36 9 62 39 62" id="aS"/><path fill="#1d262b" d="M185-48c-13 30-37 53-82 52C43 2 14-33 14-96s30-98 90-98c62 0 83 45 84 108H66c0 31 8 55 39 56 18 0 30-7 34-22zm-45-69c5-46-57-63-70-21-2 6-4 13-4 21h74" id="aT"/><g id="b"><use transform="matrix(0.09753086419753083,0,0,0.09753086419753083,0,0)" xlink:href="#aP"/><use transform="matrix(0.09753086419753083,0,0,0.09753086419753083,25.260493827160484,0)" xlink:href="#aQ"/><use transform="matrix(0.09753086419753083,0,0,0.09753086419753083,44.76666666666665,0)" xlink:href="#aR"/><use transform="matrix(0.09753086419753083,0,0,0.09753086419753083,64.27283950617282,0)" xlink:href="#aS"/><use transform="matrix(0.09753086419753083,0,0,0.09753086419753083,85.63209876543206,0)" xlink:href="#aT"/></g><path fill="#1d262b" d="M76-208v77h127v40H76V0H24v-248h183v40H76" id="aU"/><path fill="#1d262b" d="M110-194c64 0 96 36 96 99 0 64-35 99-97 99-61 0-95-36-95-99 0-62 34-99 96-99zm-1 164c35 0 45-28 45-65 0-40-10-65-43-65-34 0-45 26-45 65 0 36 10 65 43 65" id="aV"/><path fill="#1d262b" d="M135-150c-39-12-60 13-60 57V0H25l-1-190h47c2 13-1 29 3 40 6-28 27-53 61-41v41" id="aW"/><path fill="#1d262b" d="M220-157c-53 9-28 100-34 157h-49v-107c1-27-5-49-29-50C55-147 81-57 75 0H25l-1-190h47c2 12-1 28 3 38 10-53 101-56 108 0 13-22 24-43 59-42 82 1 51 116 57 194h-49v-107c-1-25-5-48-29-50" id="aX"/><g id="c"><use transform="matrix(0.09753086419753083,0,0,0.09753086419753083,0,0)" xlink:href="#aU"/><use transform="matrix(0.09753086419753083,0,0,0.09753086419753083,21.359259259259254,0)" xlink:href="#aV"/><use transform="matrix(0.09753086419753083,0,0,0.09753086419753083,42.71851851851851,0)" xlink:href="#aW"/><use transform="matrix(0.09753086419753083,0,0,0.09753086419753083,56.372839506172824,0)" xlink:href="#aX"/></g><path fill="#1d262b" d="M169-182c-1-43-94-46-97-3 18 66 151 10 154 114 3 95-165 93-204 36-6-8-10-19-12-30l50-8c3 46 112 56 116 5-17-69-150-10-154-114-4-87 153-88 188-35 5 8 8 18 10 28" id="aY"/><path fill="#1d262b" d="M85 4C-2 5 27-109 22-190h50c7 57-23 150 33 157 60-5 35-97 40-157h50l1 190h-47c-2-12 1-28-3-38-12 25-28 42-61 42" id="aZ"/><path fill="#1d262b" d="M135-194c52 0 70 43 70 98 0 56-19 99-73 100-30 1-46-15-58-35L72 0H24l1-261h50v104c11-23 29-37 60-37zM114-30c31 0 40-27 40-66 0-37-7-63-39-63s-41 28-41 65c0 36 8 64 40 64" id="ba"/><path fill="#1d262b" d="M25-224v-37h50v37H25zM25 0v-190h50V0H25" id="bb"/><path fill="#1d262b" d="M135-194c87-1 58 113 63 194h-50c-7-57 23-157-34-157-59 0-34 97-39 157H25l-1-190h47c2 12-1 28 3 38 12-26 28-41 61-42" id="bc"/><g id="d"><use transform="matrix(0.09753086419753083,0,0,0.09753086419753083,0,0)" xlink:href="#aY"/><use transform="matrix(0.09753086419753083,0,0,0.09753086419753083,23.4074074074074,0)" xlink:href="#aZ"/><use transform="matrix(0.09753086419753083,0,0,0.09753086419753083,44.76666666666665,0)" xlink:href="#ba"/><use transform="matrix(0.09753086419753083,0,0,0.09753086419753083,66.12592592592591,0)" xlink:href="#aX"/><use transform="matrix(0.09753086419753083,0,0,0.09753086419753083,97.33580246913579,0)" xlink:href="#bb"/><use transform="matrix(0.09753086419753083,0,0,0.09753086419753083,107.08888888888887,0)" xlink:href="#aQ"/><use transform="matrix(0.09753086419753083,0,0,0.09753086419753083,126.59506172839504,0)" xlink:href="#aQ"/><use transform="matrix(0.09753086419753083,0,0,0.09753086419753083,146.1012345679012,0)" xlink:href="#bb"/><use transform="matrix(0.09753086419753083,0,0,0.09753086419753083,155.8543209876543,0)" xlink:href="#aV"/><use transform="matrix(0.09753086419753083,0,0,0.09753086419753083,177.21358024691355,0)" xlink:href="#bc"/></g><path fill="#1d262b" d="M160-131c35 5 61 23 61 61C221 17 115-2 30 0v-248c76 3 177-17 177 60 0 33-19 50-47 57zm-97-11c50-1 110 9 110-42 0-47-63-36-110-37v79zm0 115c55-2 124 14 124-45 0-56-70-42-124-44v89" id="bd"/><path fill="#1d262b" d="M84 4C-5 8 30-112 23-190h32v120c0 31 7 50 39 49 72-2 45-101 50-169h31l1 190h-30c-1-10 1-25-2-33-11 22-28 36-60 37" id="be"/><path fill="#1d262b" d="M135-143c-3-34-86-38-87 0 15 53 115 12 119 90S17 21 10-45l28-5c4 36 97 45 98 0-10-56-113-15-118-90-4-57 82-63 122-42 12 7 21 19 24 35" id="bf"/><path fill="#1d262b" d="M24-231v-30h32v30H24zM24 0v-190h32V0H24" id="bg"/><path fill="#1d262b" d="M117-194c89-4 53 116 60 194h-32v-121c0-31-8-49-39-48C34-167 62-67 57 0H25l-1-190h30c1 10-1 24 2 32 11-22 29-35 61-36" id="bh"/><path fill="#1d262b" d="M100-194c63 0 86 42 84 106H49c0 40 14 67 53 68 26 1 43-12 49-29l28 8c-11 28-37 45-77 45C44 4 14-33 15-96c1-61 26-98 85-98zm52 81c6-60-76-77-97-28-3 7-6 17-6 28h103" id="bi"/><g id="e"><use transform="matrix(0.07335390946502056,0,0,0.07335390946502056,0,0)" xlink:href="#bd"/><use transform="matrix(0.07335390946502056,0,0,0.07335390946502056,17.604938271604933,0)" xlink:href="#be"/><use transform="matrix(0.07335390946502056,0,0,0.07335390946502056,32.27572016460904,0)" xlink:href="#bf"/><use transform="matrix(0.07335390946502056,0,0,0.07335390946502056,45.47942386831274,0)" xlink:href="#bg"/><use transform="matrix(0.07335390946502056,0,0,0.07335390946502056,51.274382716049374,0)" xlink:href="#bh"/><use transform="matrix(0.07335390946502056,0,0,0.07335390946502056,65.94516460905348,0)" xlink:href="#bi"/><use transform="matrix(0.07335390946502056,0,0,0.07335390946502056,80.6159465020576,0)" xlink:href="#bf"/><use transform="matrix(0.07335390946502056,0,0,0.07335390946502056,93.81965020576129,0)" xlink:href="#bf"/></g><path fill="#1d262b" d="M30-248c87 1 191-15 191 75 0 78-77 80-158 76V0H30v-248zm33 125c57 0 124 11 124-50 0-59-68-47-124-48v98" id="bj"/><path fill="#1d262b" d="M114-163C36-179 61-72 57 0H25l-1-190h30c1 12-1 29 2 39 6-27 23-49 58-41v29" id="bk"/><path fill="#1d262b" d="M100-194c62-1 85 37 85 99 1 63-27 99-86 99S16-35 15-95c0-66 28-99 85-99zM99-20c44 1 53-31 53-75 0-43-8-75-51-75s-53 32-53 75 10 74 51 75" id="bl"/><path fill="#1d262b" d="M96-169c-40 0-48 33-48 73s9 75 48 75c24 0 41-14 43-38l32 2c-6 37-31 61-74 61-59 0-76-41-82-99-10-93 101-131 147-64 4 7 5 14 7 22l-32 3c-4-21-16-35-41-35" id="bm"/><g id="f"><use transform="matrix(0.07335390946502056,0,0,0.07335390946502056,0,0)" xlink:href="#bj"/><use transform="matrix(0.07335390946502056,0,0,0.07335390946502056,17.604938271604933,0)" xlink:href="#bk"/><use transform="matrix(0.07335390946502056,0,0,0.07335390946502056,26.334053497942378,0)" xlink:href="#bl"/><use transform="matrix(0.07335390946502056,0,0,0.07335390946502056,41.00483539094649,0)" xlink:href="#bm"/><use transform="matrix(0.07335390946502056,0,0,0.07335390946502056,54.20853909465019,0)" xlink:href="#bi"/><use transform="matrix(0.07335390946502056,0,0,0.07335390946502056,68.8793209876543,0)" xlink:href="#bf"/><use transform="matrix(0.07335390946502056,0,0,0.07335390946502056,82.08302469135799,0)" xlink:href="#bf"/></g><path fill="#1d262b" d="M85-194c31 0 48 13 60 33l-1-100h32l1 261h-30c-2-10 0-23-3-31C134-8 116 4 85 4 32 4 16-35 15-94c0-66 23-100 70-100zm9 24c-40 0-46 34-46 75 0 40 6 74 45 74 42 0 51-32 51-76 0-42-9-74-50-73" id="bn"/><path fill="#1d262b" d="M24 0v-261h32V0H24" id="bo"/><g id="g"><use transform="matrix(0.07335390946502056,0,0,0.07335390946502056,0,0)" xlink:href="#aM"/><use transform="matrix(0.07335390946502056,0,0,0.07335390946502056,21.932818930041147,0)" xlink:href="#bl"/><use transform="matrix(0.07335390946502056,0,0,0.07335390946502056,36.603600823045255,0)" xlink:href="#bn"/><use transform="matrix(0.07335390946502056,0,0,0.07335390946502056,51.274382716049374,0)" xlink:href="#bi"/><use transform="matrix(0.07335390946502056,0,0,0.07335390946502056,65.94516460905348,0)" xlink:href="#bo"/></g><path fill="#1d262b" d="M32 76v-337h29V76H32" id="bp"/><use transform="matrix(0.07335390946502056,0,0,0.07335390946502056,0,0)" xlink:href="#bp" id="h"/><path fill="#1d262b" d="M33 0v-248h34V0H33" id="bq"/><g id="i"><use transform="matrix(0.07335390946502056,0,0,0.07335390946502056,0,0)" xlink:href="#bq"/><use transform="matrix(0.07335390946502056,0,0,0.07335390946502056,7.335390946502056,0)" xlink:href="#bh"/><use transform="matrix(0.07335390946502056,0,0,0.07335390946502056,22.006172839506167,0)" xlink:href="#bn"/><use transform="matrix(0.07335390946502056,0,0,0.07335390946502056,36.67695473251028,0)" xlink:href="#be"/><use transform="matrix(0.07335390946502056,0,0,0.07335390946502056,51.34773662551439,0)" xlink:href="#bm"/><use transform="matrix(0.07335390946502056,0,0,0.07335390946502056,64.5514403292181,0)" xlink:href="#bi"/></g><path fill="#1d262b" d="M177-190C167-65 218 103 67 71c-23-6-38-20-44-43l32-5c15 47 100 32 89-28v-30C133-14 115 1 83 1 29 1 15-40 15-95c0-56 16-97 71-98 29-1 48 16 59 35 1-10 0-23 2-32h30zM94-22c36 0 50-32 50-73 0-42-14-75-50-75-39 0-46 34-46 75s6 73 46 73" id="br"/><g id="j"><use transform="matrix(0.07335390946502056,0,0,0.07335390946502056,0,0)" xlink:href="#bd"/><use transform="matrix(0.07335390946502056,0,0,0.07335390946502056,17.604938271604933,0)" xlink:href="#bg"/><use transform="matrix(0.07335390946502056,0,0,0.07335390946502056,23.39989711934156,0)" xlink:href="#bl"/><use transform="matrix(0.07335390946502056,0,0,0.07335390946502056,38.070679012345664,0)" xlink:href="#bo"/><use transform="matrix(0.07335390946502056,0,0,0.07335390946502056,43.86563786008229,0)" xlink:href="#bl"/><use transform="matrix(0.07335390946502056,0,0,0.07335390946502056,58.5364197530864,0)" xlink:href="#br"/><use transform="matrix(0.07335390946502056,0,0,0.07335390946502056,73.20720164609051,0)" xlink:href="#bg"/><use transform="matrix(0.07335390946502056,0,0,0.07335390946502056,79.00216049382715,0)" xlink:href="#bm"/><use transform="matrix(0.07335390946502056,0,0,0.07335390946502056,92.20586419753083,0)" xlink:href="#bf"/></g><path fill="#1d262b" d="M30-248c118-7 216 8 213 122C240-48 200 0 122 0H30v-248zM63-27c89 8 146-16 146-99s-60-101-146-95v194" id="bs"/><g id="k"><use transform="matrix(0.05,0,0,0.05,0,0)" xlink:href="#aL"/><use transform="matrix(0.05,0,0,0.05,14,0)" xlink:href="#aO"/><use transform="matrix(0.05,0,0,0.05,26.950000000000003,0)" xlink:href="#bs"/><use transform="matrix(0.05,0,0,0.05,39.900000000000006,0)" xlink:href="#aN"/><use transform="matrix(0.05,0,0,0.05,51.900000000000006,0)" xlink:href="#aO"/></g><path fill="#1d262b" d="M63-220v92h138v28H63V0H30v-248h175v28H63" id="bt"/><g id="l"><use transform="matrix(0.05,0,0,0.05,0,0)" xlink:href="#bt"/><use transform="matrix(0.05,0,0,0.05,10.950000000000001,0)" xlink:href="#aL"/><use transform="matrix(0.05,0,0,0.05,24.950000000000003,0)" xlink:href="#aO"/><use transform="matrix(0.05,0,0,0.05,37.900000000000006,0)" xlink:href="#aM"/></g><path fill="#1d262b" d="M205 0l-28-72H64L36 0H1l101-248h38L239 0h-34zm-38-99l-47-123c-12 45-31 82-46 123h93" id="bu"/><path fill="#1d262b" d="M143 4C61 4 22-44 18-125c-5-107 100-154 193-111 17 8 29 25 37 43l-32 9c-13-25-37-40-76-40-61 0-88 39-88 99 0 61 29 100 91 101 35 0 62-11 79-27v-45h-74v-28h105v86C228-13 192 4 143 4" id="bv"/><g id="m"><use transform="matrix(0.05,0,0,0.05,0,0)" xlink:href="#aI"/><use transform="matrix(0.05,0,0,0.05,12.950000000000001,0)" xlink:href="#aJ"/><use transform="matrix(0.05,0,0,0.05,24.950000000000003,0)" xlink:href="#bu"/><use transform="matrix(0.05,0,0,0.05,36.95,0)" xlink:href="#bv"/><use transform="matrix(0.05,0,0,0.05,50.95,0)" xlink:href="#aN"/></g><path fill="#1d262b" d="M197 0v-115H63V0H30v-248h33v105h134v-105h34V0h-34" id="bw"/><g id="n"><use transform="matrix(0.05,0,0,0.05,0,0)" xlink:href="#aJ"/><use transform="matrix(0.05,0,0,0.05,12,0)" xlink:href="#bw"/><use transform="matrix(0.05,0,0,0.05,24.950000000000003,0)" xlink:href="#aN"/><use transform="matrix(0.05,0,0,0.05,36.95,0)" xlink:href="#aN"/><use transform="matrix(0.05,0,0,0.05,48.95,0)" xlink:href="#aK"/></g><path fill="#1d262b" d="M140-251c81 0 123 46 123 126C263-53 228-8 163 1c7 30 30 48 69 40v23c-55 16-95-15-103-61C56-3 17-48 17-125c0-80 42-126 123-126zm0 227c63 0 89-41 89-101s-29-99-89-99c-61 0-89 39-89 99S79-25 140-24" id="bx"/><g id="o"><use transform="matrix(0.05,0,0,0.05,0,0)" xlink:href="#aO"/><use transform="matrix(0.05,0,0,0.05,12.950000000000001,0)" xlink:href="#aN"/><use transform="matrix(0.05,0,0,0.05,24.950000000000003,0)" xlink:href="#bx"/><use transform="matrix(0.05,0,0,0.05,38.95,0)" xlink:href="#aI"/><use transform="matrix(0.05,0,0,0.05,51.900000000000006,0)" xlink:href="#aN"/><use transform="matrix(0.05,0,0,0.05,63.900000000000006,0)" xlink:href="#aJ"/><use transform="matrix(0.05,0,0,0.05,75.9,0)" xlink:href="#aK"/></g><path fill="#1d262b" d="M137-103V0h-34v-103L8-248h37l75 118 75-118h37" id="by"/><g id="p"><use transform="matrix(0.05,0,0,0.05,0,0)" xlink:href="#aK"/><use transform="matrix(0.05,0,0,0.05,10.950000000000001,0)" xlink:href="#by"/><use transform="matrix(0.05,0,0,0.05,22.950000000000003,0)" xlink:href="#bj"/><use transform="matrix(0.05,0,0,0.05,34.95,0)" xlink:href="#aN"/></g><g id="q"><use transform="matrix(0.05,0,0,0.05,0,0)" xlink:href="#bj"/><use transform="matrix(0.05,0,0,0.05,12,0)" xlink:href="#aI"/><use transform="matrix(0.05,0,0,0.05,24.950000000000003,0)" xlink:href="#aO"/><use transform="matrix(0.05,0,0,0.05,37.900000000000006,0)" xlink:href="#aH"/><use transform="matrix(0.05,0,0,0.05,50.85000000000001,0)" xlink:href="#bw"/><use transform="matrix(0.05,0,0,0.05,63.80000000000001,0)" xlink:href="#bu"/><use transform="matrix(0.05,0,0,0.05,75.80000000000001,0)" xlink:href="#aJ"/><use transform="matrix(0.05,0,0,0.05,87.80000000000001,0)" xlink:href="#aN"/></g><g id="r"><use transform="matrix(0.05,0,0,0.05,0,0)" xlink:href="#aL"/><use transform="matrix(0.05,0,0,0.05,14,0)" xlink:href="#aO"/><use transform="matrix(0.05,0,0,0.05,26.950000000000003,0)" xlink:href="#bs"/><use transform="matrix(0.05,0,0,0.05,39.900000000000006,0)" xlink:href="#aN"/><use transform="matrix(0.05,0,0,0.05,51.900000000000006,0)" xlink:href="#aO"/></g><path fill="#1d262b" d="M190 0L58-211 59 0H30v-248h39L202-35l-2-213h31V0h-41" id="bz"/><g id="s"><use transform="matrix(0.05,0,0,0.05,0,0)" xlink:href="#aH"/><use transform="matrix(0.05,0,0,0.05,12.950000000000001,0)" xlink:href="#aL"/><use transform="matrix(0.05,0,0,0.05,26.950000000000003,0)" xlink:href="#bz"/><use transform="matrix(0.05,0,0,0.05,39.900000000000006,0)" xlink:href="#aJ"/><use transform="matrix(0.05,0,0,0.05,51.900000000000006,0)" xlink:href="#bq"/><use transform="matrix(0.05,0,0,0.05,56.900000000000006,0)" xlink:href="#bv"/><use transform="matrix(0.05,0,0,0.05,70.9,0)" xlink:href="#bz"/><use transform="matrix(0.05,0,0,0.05,83.85000000000001,0)" xlink:href="#aM"/><use transform="matrix(0.05,0,0,0.05,98.80000000000001,0)" xlink:href="#aN"/><use transform="matrix(0.05,0,0,0.05,110.80000000000001,0)" xlink:href="#bz"/><use transform="matrix(0.05,0,0,0.05,123.75,0)" xlink:href="#aK"/></g><path fill="#1d262b" d="M140-251c80 0 125 45 125 126S219 4 139 4C58 4 15-44 15-125s44-126 125-126zm-1 214c52 0 73-35 73-88 0-50-21-86-72-86-52 0-73 35-73 86s22 88 72 88" id="bA"/><path fill="#1d262b" d="M240-174c0 40-23 61-54 70L253 0h-59l-57-94H76V0H24v-248c93 4 217-23 216 74zM76-134c48-2 112 12 112-38 0-48-66-32-112-35v73" id="bB"/><path fill="#1d262b" d="M24-248c120-7 223 5 221 122C244-46 201 0 124 0H24v-248zM76-40c74 7 117-18 117-86 0-67-45-88-117-82v168" id="bC"/><path fill="#1d262b" d="M24 0v-248h195v40H76v63h132v40H76v65h150V0H24" id="bD"/><g id="t"><use transform="matrix(0.08086419753086417,0,0,0.08086419753086417,0,0)" xlink:href="#bA"/><use transform="matrix(0.08086419753086417,0,0,0.08086419753086417,22.641975308641968,0)" xlink:href="#bB"/><use transform="matrix(0.08086419753086417,0,0,0.08086419753086417,43.585802469135785,0)" xlink:href="#bC"/><use transform="matrix(0.08086419753086417,0,0,0.08086419753086417,64.52962962962961,0)" xlink:href="#bD"/><use transform="matrix(0.08086419753086417,0,0,0.08086419753086417,83.93703703703702,0)" xlink:href="#bB"/></g><path fill="#1d262b" d="M67-125c0 53 21 87 73 88 37 1 54-22 65-47l45 17C233-25 199 4 140 4 58 4 20-42 15-125 8-235 124-281 211-232c18 10 29 29 36 50l-46 12c-8-25-30-41-62-41-52 0-71 34-72 86" id="bE"/><path fill="#1d262b" d="M175 0L67-191c6 58 2 128 3 191H24v-248h59L193-55c-6-58-2-129-3-193h46V0h-61" id="bF"/><path fill="#1d262b" d="M24 0v-248h52V0H24" id="bG"/><path fill="#1d262b" d="M230 0l2-204L168 0h-37L68-204 70 0H24v-248h70l56 185 57-185h69V0h-46" id="bH"/><path fill="#1d262b" d="M199 0l-22-63H83L61 0H9l90-248h61L250 0h-51zm-33-102l-36-108c-10 38-24 72-36 108h72" id="bI"/><path fill="#1d262b" d="M136-208V0H84v-208H4v-40h212v40h-80" id="bJ"/><g id="u"><use transform="matrix(0.08086419753086417,0,0,0.08086419753086417,0,0)" xlink:href="#bE"/><use transform="matrix(0.08086419753086417,0,0,0.08086419753086417,20.94382716049382,0)" xlink:href="#bA"/><use transform="matrix(0.08086419753086417,0,0,0.08086419753086417,43.585802469135785,0)" xlink:href="#bF"/><use transform="matrix(0.08086419753086417,0,0,0.08086419753086417,64.52962962962961,0)" xlink:href="#aU"/><use transform="matrix(0.08086419753086417,0,0,0.08086419753086417,82.23888888888887,0)" xlink:href="#bG"/><use transform="matrix(0.08086419753086417,0,0,0.08086419753086417,90.32530864197528,0)" xlink:href="#bB"/><use transform="matrix(0.08086419753086417,0,0,0.08086419753086417,111.26913580246912,0)" xlink:href="#bH"/><use transform="matrix(0.08086419753086417,0,0,0.08086419753086417,135.4475308641975,0)" xlink:href="#bI"/><use transform="matrix(0.08086419753086417,0,0,0.08086419753086417,154.20802469135796,0)" xlink:href="#bJ"/><use transform="matrix(0.08086419753086417,0,0,0.08086419753086417,171.91728395061722,0)" xlink:href="#bG"/><use transform="matrix(0.08086419753086417,0,0,0.08086419753086417,180.00370370370365,0)" xlink:href="#bA"/><use transform="matrix(0.08086419753086417,0,0,0.08086419753086417,202.64567901234562,0)" xlink:href="#bF"/></g><g id="v"><use transform="matrix(0.08086419753086417,0,0,0.08086419753086417,0,0)" xlink:href="#bG"/><use transform="matrix(0.08086419753086417,0,0,0.08086419753086417,8.086419753086417,0)" xlink:href="#bF"/><use transform="matrix(0.08086419753086417,0,0,0.08086419753086417,29.03024691358024,0)" xlink:href="#bC"/><use transform="matrix(0.08086419753086417,0,0,0.08086419753086417,49.97407407407406,0)" xlink:href="#aP"/><use transform="matrix(0.08086419753086417,0,0,0.08086419753086417,70.91790123456788,0)" xlink:href="#bE"/><use transform="matrix(0.08086419753086417,0,0,0.08086419753086417,91.8617283950617,0)" xlink:href="#bD"/></g><path fill="#1d262b" d="M182-130c37 4 62 22 62 59C244 23 116-4 24 0v-248c84 5 203-23 205 63 0 31-19 50-47 55zM76-148c40-3 101 13 101-30 0-44-60-28-101-31v61zm0 110c48-3 116 14 116-37 0-48-69-32-116-35v72" id="bK"/><path fill="#1d262b" d="M24 0v-248h52v208h133V0H24" id="bL"/><path fill="#1d262b" d="M67-125c0 54 23 88 75 88 28 0 53-7 68-21v-34h-60v-39h108v91C232-14 192 4 140 4 58 4 20-42 15-125 8-236 126-280 215-234c19 10 29 26 37 47l-47 15c-11-23-29-39-63-39-53 1-75 33-75 86" id="bM"/><g id="w"><use transform="matrix(0.08086419753086417,0,0,0.08086419753086417,0,0)" xlink:href="#bK"/><use transform="matrix(0.08086419753086417,0,0,0.08086419753086417,20.94382716049382,0)" xlink:href="#bG"/><use transform="matrix(0.08086419753086417,0,0,0.08086419753086417,29.03024691358024,0)" xlink:href="#bA"/><use transform="matrix(0.08086419753086417,0,0,0.08086419753086417,51.6722222222222,0)" xlink:href="#bL"/><use transform="matrix(0.08086419753086417,0,0,0.08086419753086417,69.38148148148146,0)" xlink:href="#bA"/><use transform="matrix(0.08086419753086417,0,0,0.08086419753086417,92.02345679012343,0)" xlink:href="#bM"/><use transform="matrix(0.08086419753086417,0,0,0.08086419753086417,114.6654320987654,0)" xlink:href="#bG"/><use transform="matrix(0.08086419753086417,0,0,0.08086419753086417,122.75185185185181,0)" xlink:href="#bE"/><use transform="matrix(0.08086419753086417,0,0,0.08086419753086417,143.69567901234564,0)" xlink:href="#aY"/></g><g id="x"><use transform="matrix(0.08086419753086417,0,0,0.08086419753086417,0,0)" xlink:href="#bE"/><use transform="matrix(0.08086419753086417,0,0,0.08086419753086417,20.94382716049382,0)" xlink:href="#aP"/><use transform="matrix(0.08086419753086417,0,0,0.08086419753086417,41.88765432098764,0)" xlink:href="#aY"/><use transform="matrix(0.08086419753086417,0,0,0.08086419753086417,61.29506172839504,0)" xlink:href="#bJ"/><use transform="matrix(0.08086419753086417,0,0,0.08086419753086417,78.43827160493824,0)" xlink:href="#bA"/><use transform="matrix(0.08086419753086417,0,0,0.08086419753086417,101.0802469135802,0)" xlink:href="#bH"/><use transform="matrix(0.08086419753086417,0,0,0.08086419753086417,125.2586419753086,0)" xlink:href="#bD"/><use transform="matrix(0.08086419753086417,0,0,0.08086419753086417,144.66604938271598,0)" xlink:href="#bB"/></g><g id="y"><use transform="matrix(0.05,0,0,0.05,0,0)" xlink:href="#aI"/><use transform="matrix(0.05,0,0,0.05,12.950000000000001,0)" xlink:href="#bj"/><use transform="matrix(0.05,0,0,0.05,24.950000000000003,0)" xlink:href="#bs"/><use transform="matrix(0.05,0,0,0.05,37.900000000000006,0)" xlink:href="#bu"/><use transform="matrix(0.05,0,0,0.05,48.550000000000004,0)" xlink:href="#aK"/><use transform="matrix(0.05,0,0,0.05,59.5,0)" xlink:href="#aN"/></g><g id="z"><use transform="matrix(0.05,0,0,0.05,0,0)" xlink:href="#aM"/><use transform="matrix(0.05,0,0,0.05,14.950000000000001,0)" xlink:href="#bu"/><use transform="matrix(0.05,0,0,0.05,26.950000000000003,0)" xlink:href="#aJ"/><use transform="matrix(0.05,0,0,0.05,38.95,0)" xlink:href="#aK"/><use transform="matrix(0.05,0,0,0.05,49.900000000000006,0)" xlink:href="#aN"/><use transform="matrix(0.05,0,0,0.05,61.900000000000006,0)" xlink:href="#aO"/></g><g id="A"><use transform="matrix(0.05,0,0,0.05,0,0)" xlink:href="#bs"/><use transform="matrix(0.05,0,0,0.05,12.950000000000001,0)" xlink:href="#bu"/><use transform="matrix(0.05,0,0,0.05,23.6,0)" xlink:href="#aK"/><use transform="matrix(0.05,0,0,0.05,33.2,0)" xlink:href="#bu"/><use transform="matrix(0.05,0,0,0.05,45.2,0)" xlink:href="#bd"/><use transform="matrix(0.05,0,0,0.05,57.2,0)" xlink:href="#bu"/><use transform="matrix(0.05,0,0,0.05,69.2,0)" xlink:href="#aJ"/><use transform="matrix(0.05,0,0,0.05,81.2,0)" xlink:href="#aN"/></g><path fill="#1d262b" d="M266 0h-40l-56-210L115 0H75L2-248h35L96-30l15-64 43-154h32l59 218 59-218h35" id="bN"/><path fill="#1d262b" d="M30 0v-248h33v221h125V0H30" id="bO"/><g id="B"><use transform="matrix(0.05,0,0,0.05,0,0)" xlink:href="#bt"/><use transform="matrix(0.05,0,0,0.05,10.950000000000001,0)" xlink:href="#bq"/><use transform="matrix(0.05,0,0,0.05,15.950000000000001,0)" xlink:href="#aJ"/><use transform="matrix(0.05,0,0,0.05,27.950000000000003,0)" xlink:href="#bw"/><use transform="matrix(0.05,0,0,0.05,40.900000000000006,0)" xlink:href="#bd"/><use transform="matrix(0.05,0,0,0.05,52.900000000000006,0)" xlink:href="#aL"/><use transform="matrix(0.05,0,0,0.05,66.9,0)" xlink:href="#bN"/><use transform="matrix(0.05,0,0,0.05,83.85000000000001,0)" xlink:href="#bO"/></g><g id="C"><use transform="matrix(0.05,0,0,0.05,0,0)" xlink:href="#aN"/><use transform="matrix(0.05,0,0,0.05,12,0)" xlink:href="#bz"/><use transform="matrix(0.05,0,0,0.05,24.950000000000003,0)" xlink:href="#bs"/></g><g id="D"><use transform="matrix(0.08086419753086417,0,0,0.08086419753086417,0,0)" xlink:href="#bC"/><use transform="matrix(0.08086419753086417,0,0,0.08086419753086417,20.94382716049382,0)" xlink:href="#bI"/><use transform="matrix(0.08086419753086417,0,0,0.08086419753086417,39.70432098765431,0)" xlink:href="#bJ"/><use transform="matrix(0.08086419753086417,0,0,0.08086419753086417,55.23024691358023,0)" xlink:href="#bI"/></g><path fill="#1d262b" d="M24-248c93 1 206-16 204 79-1 75-69 88-152 82V0H24v-248zm52 121c47 0 100 7 100-41 0-47-54-39-100-39v80" id="bP"/><g id="E"><use transform="matrix(0.08086419753086417,0,0,0.08086419753086417,0,0)" xlink:href="#aP"/><use transform="matrix(0.08086419753086417,0,0,0.08086419753086417,20.94382716049382,0)" xlink:href="#bP"/><use transform="matrix(0.08086419753086417,0,0,0.08086419753086417,40.35123456790122,0)" xlink:href="#bC"/><use transform="matrix(0.08086419753086417,0,0,0.08086419753086417,61.29506172839504,0)" xlink:href="#bI"/><use transform="matrix(0.08086419753086417,0,0,0.08086419753086417,80.05555555555553,0)" xlink:href="#bJ"/><use transform="matrix(0.08086419753086417,0,0,0.08086419753086417,97.76481481481478,0)" xlink:href="#bD"/><use transform="matrix(0.08086419753086417,0,0,0.08086419753086417,117.17222222222219,0)" xlink:href="#aY"/></g><path d="M24-248c120-7 223 5 221 122C244-46 201 0 124 0H24v-248zM76-40c74 7 117-18 117-86 0-67-45-88-117-82v168" id="bQ"/><path d="M25-224v-37h50v37H25zM25 0v-190h50V0H25" id="bR"/><path d="M133-34C117-15 103 5 69 4 32 3 11-16 11-54c-1-60 55-63 116-61 1-26-3-47-28-47-18 1-26 9-28 27l-52-2c7-38 36-58 82-57s74 22 75 68l1 82c-1 14 12 18 25 15v27c-30 8-71 5-69-32zm-48 3c29 0 43-24 42-57-32 0-66-3-65 30 0 17 8 27 23 27" id="bS"/><path d="M195-6C206 82 75 100 31 46c-4-6-6-13-8-21l49-6c3 16 16 24 34 25 40 0 42-37 40-79-11 22-30 35-61 35-53 0-70-43-70-97 0-56 18-96 73-97 30 0 46 14 59 34l2-30h47zm-90-29c32 0 41-27 41-63 0-35-9-62-40-62-32 0-39 29-40 63 0 36 9 62 39 62" id="bT"/><path d="M135-150c-39-12-60 13-60 57V0H25l-1-190h47c2 13-1 29 3 40 6-28 27-53 61-41v41" id="bU"/><path d="M220-157c-53 9-28 100-34 157h-49v-107c1-27-5-49-29-50C55-147 81-57 75 0H25l-1-190h47c2 12-1 28 3 38 10-53 101-56 108 0 13-22 24-43 59-42 82 1 51 116 57 194h-49v-107c-1-25-5-48-29-50" id="bV"/><g id="F"><use transform="matrix(0.05824705016243525,0,0,0.05824705016243525,0,0)" xlink:href="#bQ"/><use transform="matrix(0.05824705016243525,0,0,0.05824705016243525,15.085985992070729,0)" xlink:href="#bR"/><use transform="matrix(0.05824705016243525,0,0,0.05824705016243525,20.910691008314256,0)" xlink:href="#bS"/><use transform="matrix(0.05824705016243525,0,0,0.05824705016243525,32.56010104080131,0)" xlink:href="#bT"/><use transform="matrix(0.05824705016243525,0,0,0.05824705016243525,45.316205026374625,0)" xlink:href="#bU"/><use transform="matrix(0.05824705016243525,0,0,0.05824705016243525,53.47079204911556,0)" xlink:href="#bS"/><use transform="matrix(0.05824705016243525,0,0,0.05824705016243525,65.12020208160261,0)" xlink:href="#bV"/></g><path d="M195 0l-88-114-31 24V0H24v-248h52v113l112-113h60L142-143 257 0h-62" id="bW"/><path d="M185-48c-13 30-37 53-82 52C43 2 14-33 14-96s30-98 90-98c62 0 83 45 84 108H66c0 31 8 55 39 56 18 0 30-7 34-22zm-45-69c5-46-57-63-70-21-2 6-4 13-4 21h74" id="bX"/><path d="M123 10C108 53 80 86 19 72V37c35 8 53-11 59-39L3-190h52l48 148c12-52 28-100 44-148h51" id="bY"/><g id="G"><use transform="matrix(0.05824705016243525,0,0,0.05824705016243525,0,0)" xlink:href="#bW"/><use transform="matrix(0.05824705016243525,0,0,0.05824705016243525,15.085985992070729,0)" xlink:href="#bX"/><use transform="matrix(0.05824705016243525,0,0,0.05824705016243525,26.73539602455778,0)" xlink:href="#bY"/></g><path d="M30-248c87 1 191-15 191 75 0 78-77 80-158 76V0H30v-248zm33 125c57 0 124 11 124-50 0-59-68-47-124-48v98" id="bZ"/><path d="M114-163C36-179 61-72 57 0H25l-1-190h30c1 12-1 29 2 39 6-27 23-49 58-41v29" id="ca"/><path d="M100-194c62-1 85 37 85 99 1 63-27 99-86 99S16-35 15-95c0-66 28-99 85-99zM99-20c44 1 53-31 53-75 0-43-8-75-51-75s-53 32-53 75 10 74 51 75" id="cb"/><path d="M96-169c-40 0-48 33-48 73s9 75 48 75c24 0 41-14 43-38l32 2c-6 37-31 61-74 61-59 0-76-41-82-99-10-93 101-131 147-64 4 7 5 14 7 22l-32 3c-4-21-16-35-41-35" id="cc"/><path d="M100-194c63 0 86 42 84 106H49c0 40 14 67 53 68 26 1 43-12 49-29l28 8c-11 28-37 45-77 45C44 4 14-33 15-96c1-61 26-98 85-98zm52 81c6-60-76-77-97-28-3 7-6 17-6 28h103" id="cd"/><path d="M135-143c-3-34-86-38-87 0 15 53 115 12 119 90S17 21 10-45l28-5c4 36 97 45 98 0-10-56-113-15-118-90-4-57 82-63 122-42 12 7 21 19 24 35" id="ce"/><g id="H"><use transform="matrix(0.05824705016243525,0,0,0.05824705016243525,0,0)" xlink:href="#bZ"/><use transform="matrix(0.05824705016243525,0,0,0.05824705016243525,13.97929203898446,0)" xlink:href="#ca"/><use transform="matrix(0.05824705016243525,0,0,0.05824705016243525,20.910691008314252,0)" xlink:href="#cb"/><use transform="matrix(0.05824705016243525,0,0,0.05824705016243525,32.56010104080131,0)" xlink:href="#cc"/><use transform="matrix(0.05824705016243525,0,0,0.05824705016243525,43.04457007003965,0)" xlink:href="#cd"/><use transform="matrix(0.05824705016243525,0,0,0.05824705016243525,54.693980102526695,0)" xlink:href="#ce"/><use transform="matrix(0.05824705016243525,0,0,0.05824705016243525,65.17844913176503,0)" xlink:href="#ce"/></g><path d="M59-47c-2 24 18 29 38 22v24C64 9 27 4 27-40v-127H5v-23h24l9-43h21v43h35v23H59v120" id="cf"/><path d="M115-194c55 1 70 41 70 98S169 2 115 4C84 4 66-9 55-30l1 105H24l-1-265h31l2 30c10-21 28-34 59-34zm-8 174c40 0 45-34 45-75s-6-73-45-74c-42 0-51 32-51 76 0 43 10 73 51 73" id="cg"/><g id="I"><use transform="matrix(0.05824705016243525,0,0,0.05824705016243525,0,0)" xlink:href="#ce"/><use transform="matrix(0.05824705016243525,0,0,0.05824705016243525,10.484469029238344,0)" xlink:href="#cf"/><use transform="matrix(0.05824705016243525,0,0,0.05824705016243525,16.309174045481868,0)" xlink:href="#cd"/><use transform="matrix(0.05824705016243525,0,0,0.05824705016243525,27.95858407796892,0)" xlink:href="#cg"/><use transform="matrix(0.05824705016243525,0,0,0.05824705016243525,39.60799411045597,0)" xlink:href="#ce"/></g><path d="M30-248c118-7 216 8 213 122C240-48 200 0 122 0H30v-248zM63-27c89 8 146-16 146-99s-60-101-146-95v194" id="ch"/><path d="M24-231v-30h32v30H24zM24 0v-190h32V0H24" id="ci"/><path d="M117-194c89-4 53 116 60 194h-32v-121c0-31-8-49-39-48C34-167 62-67 57 0H25l-1-190h30c1 10-1 24 2 32 11-22 29-35 61-36" id="cj"/><g id="J"><use transform="matrix(0.05824705016243525,0,0,0.05824705016243525,0,0)" xlink:href="#ch"/><use transform="matrix(0.05824705016243525,0,0,0.05824705016243525,15.085985992070729,0)" xlink:href="#cd"/><use transform="matrix(0.05824705016243525,0,0,0.05824705016243525,26.73539602455778,0)" xlink:href="#cc"/><use transform="matrix(0.05824705016243525,0,0,0.05824705016243525,37.21986505379612,0)" xlink:href="#ci"/><use transform="matrix(0.05824705016243525,0,0,0.05824705016243525,41.821382016628505,0)" xlink:href="#ce"/><use transform="matrix(0.05824705016243525,0,0,0.05824705016243525,52.30585104586685,0)" xlink:href="#ci"/><use transform="matrix(0.05824705016243525,0,0,0.05824705016243525,56.90736800869924,0)" xlink:href="#cb"/><use transform="matrix(0.05824705016243525,0,0,0.05824705016243525,68.55677804118629,0)" xlink:href="#cj"/></g><path d="M84 4C-5 8 30-112 23-190h32v120c0 31 7 50 39 49 72-2 45-101 50-169h31l1 190h-30c-1-10 1-25-2-33-11 22-28 36-60 37" id="ck"/><path d="M210-169c-67 3-38 105-44 169h-31v-121c0-29-5-50-35-48C34-165 62-65 56 0H25l-1-190h30c1 10-1 24 2 32 10-44 99-50 107 0 11-21 27-35 58-36 85-2 47 119 55 194h-31v-121c0-29-5-49-35-48" id="cl"/><g id="K"><use transform="matrix(0.06836143413157039,0,0,0.06836143413157039,0,0)" xlink:href="#ch"/><use transform="matrix(0.06836143413157039,0,0,0.06836143413157039,17.70561144007673,0)" xlink:href="#cb"/><use transform="matrix(0.06836143413157039,0,0,0.06836143413157039,31.377898266390815,0)" xlink:href="#cc"/><use transform="matrix(0.06836143413157039,0,0,0.06836143413157039,43.68295641007349,0)" xlink:href="#ck"/><use transform="matrix(0.06836143413157039,0,0,0.06836143413157039,57.355243236387565,0)" xlink:href="#cl"/><use transform="matrix(0.06836143413157039,0,0,0.06836143413157039,77.79531204172712,0)" xlink:href="#cd"/><use transform="matrix(0.06836143413157039,0,0,0.06836143413157039,91.4675988680412,0)" xlink:href="#cj"/><use transform="matrix(0.06836143413157039,0,0,0.06836143413157039,105.13988569435529,0)" xlink:href="#cf"/></g><path d="M85-194c31 0 48 13 60 33l-1-100h32l1 261h-30c-2-10 0-23-3-31C134-8 116 4 85 4 32 4 16-35 15-94c0-66 23-100 70-100zm9 24c-40 0-46 34-46 75 0 40 6 74 45 74 42 0 51-32 51-76 0-42-9-74-50-73" id="cm"/><path d="M101-234c-31-9-42 10-38 44h38v23H63V0H32v-167H5v-23h27c-7-52 17-82 69-68v24" id="cn"/><g id="L"><use transform="matrix(0.05423490051065329,0,0,0.05423490051065329,0,0)" xlink:href="#bZ"/><use transform="matrix(0.05423490051065329,0,0,0.05423490051065329,13.01637612255679,0)" xlink:href="#ca"/><use transform="matrix(0.05423490051065329,0,0,0.05423490051065329,19.47032928332453,0)" xlink:href="#cd"/><use transform="matrix(0.05423490051065329,0,0,0.05423490051065329,30.31730938545519,0)" xlink:href="#cm"/><use transform="matrix(0.05423490051065329,0,0,0.05423490051065329,41.16428948758585,0)" xlink:href="#cd"/><use transform="matrix(0.05423490051065329,0,0,0.05423490051065329,52.011269589716505,0)" xlink:href="#cn"/><use transform="matrix(0.05423490051065329,0,0,0.05423490051065329,57.43475964078183,0)" xlink:href="#ci"/><use transform="matrix(0.05423490051065329,0,0,0.05423490051065329,61.71931678112343,0)" xlink:href="#cj"/><use transform="matrix(0.05423490051065329,0,0,0.05423490051065329,72.5662968832541,0)" xlink:href="#cd"/><use transform="matrix(0.05423490051065329,0,0,0.05423490051065329,83.41327698538475,0)" xlink:href="#cm"/></g><g id="M"><use transform="matrix(0.05423490051065329,0,0,0.05423490051065329,0,0)" xlink:href="#bZ"/><use transform="matrix(0.05423490051065329,0,0,0.05423490051065329,13.01637612255679,0)" xlink:href="#ca"/><use transform="matrix(0.05423490051065329,0,0,0.05423490051065329,19.47032928332453,0)" xlink:href="#cb"/><use transform="matrix(0.05423490051065329,0,0,0.05423490051065329,30.31730938545519,0)" xlink:href="#cc"/><use transform="matrix(0.05423490051065329,0,0,0.05423490051065329,40.07959147737278,0)" xlink:href="#cd"/><use transform="matrix(0.05423490051065329,0,0,0.05423490051065329,50.92657157950344,0)" xlink:href="#ce"/><use transform="matrix(0.05423490051065329,0,0,0.05423490051065329,60.688853671421036,0)" xlink:href="#ce"/></g><g id="N"><use transform="matrix(0.05,0,0,0.05,0,0)" xlink:href="#bj"/><use transform="matrix(0.05,0,0,0.05,12,0)" xlink:href="#bw"/><use transform="matrix(0.05,0,0,0.05,24.950000000000003,0)" xlink:href="#aL"/><use transform="matrix(0.05,0,0,0.05,38.95,0)" xlink:href="#aK"/><use transform="matrix(0.05,0,0,0.05,49.550000000000004,0)" xlink:href="#aL"/></g><path fill="#1d262b" d="M195 0l-74-108L45 0H8l94-129-87-119h37l69 98 67-98h37l-84 118L233 0h-38" id="co"/><g id="O"><use transform="matrix(0.05,0,0,0.05,0,0)" xlink:href="#aK"/><use transform="matrix(0.05,0,0,0.05,10.950000000000001,0)" xlink:href="#aN"/><use transform="matrix(0.05,0,0,0.05,22.950000000000003,0)" xlink:href="#co"/><use transform="matrix(0.05,0,0,0.05,34.95,0)" xlink:href="#aK"/></g><g id="P"><use transform="matrix(0.05,0,0,0.05,0,0)" xlink:href="#bj"/><use transform="matrix(0.05,0,0,0.05,12,0)" xlink:href="#aO"/><use transform="matrix(0.05,0,0,0.05,24.950000000000003,0)" xlink:href="#aL"/><use transform="matrix(0.05,0,0,0.05,38.95,0)" xlink:href="#bs"/><use transform="matrix(0.05,0,0,0.05,51.900000000000006,0)" xlink:href="#aI"/><use transform="matrix(0.05,0,0,0.05,64.85000000000001,0)" xlink:href="#aH"/><use transform="matrix(0.05,0,0,0.05,77.80000000000001,0)" xlink:href="#aK"/></g><g id="Q"><use transform="matrix(0.05,0,0,0.05,0,0)" xlink:href="#aI"/><use transform="matrix(0.05,0,0,0.05,12.950000000000001,0)" xlink:href="#aJ"/><use transform="matrix(0.05,0,0,0.05,24.950000000000003,0)" xlink:href="#aN"/><use transform="matrix(0.05,0,0,0.05,36.95,0)" xlink:href="#bs"/></g><g id="R"><use transform="matrix(0.05,0,0,0.05,0,0)" xlink:href="#bq"/><use transform="matrix(0.05,0,0,0.05,5,0)" xlink:href="#aJ"/></g><g id="S"><use transform="matrix(0.05,0,0,0.05,0,0)" xlink:href="#bj"/><use transform="matrix(0.05,0,0,0.05,12,0)" xlink:href="#aI"/><use transform="matrix(0.05,0,0,0.05,24.950000000000003,0)" xlink:href="#aO"/><use transform="matrix(0.05,0,0,0.05,37.900000000000006,0)" xlink:href="#aH"/><use transform="matrix(0.05,0,0,0.05,50.85000000000001,0)" xlink:href="#bw"/><use transform="matrix(0.05,0,0,0.05,63.80000000000001,0)" xlink:href="#bu"/><use transform="matrix(0.05,0,0,0.05,75.80000000000001,0)" xlink:href="#aJ"/><use transform="matrix(0.05,0,0,0.05,87.80000000000001,0)" xlink:href="#aN"/></g><g id="T"><use transform="matrix(0.05,0,0,0.05,0,0)" xlink:href="#aL"/><use transform="matrix(0.05,0,0,0.05,14,0)" xlink:href="#aO"/><use transform="matrix(0.05,0,0,0.05,26.950000000000003,0)" xlink:href="#bs"/><use transform="matrix(0.05,0,0,0.05,39.900000000000006,0)" xlink:href="#aN"/><use transform="matrix(0.05,0,0,0.05,51.900000000000006,0)" xlink:href="#aO"/></g><path fill="#1d262b" d="M103-251c84 0 111 97 45 133-19 10-37 24-39 52H78c0-63 77-55 77-114 0-30-21-42-52-43-32 0-53 17-56 46l-32-2c7-45 34-72 88-72zM77 0v-35h34V0H77" id="cp"/><g id="U"><use transform="matrix(0.05,0,0,0.05,0,0)" xlink:href="#bq"/><use transform="matrix(0.05,0,0,0.05,5,0)" xlink:href="#aJ"/><use transform="matrix(0.05,0,0,0.05,17,0)" xlink:href="#aJ"/><use transform="matrix(0.05,0,0,0.05,29,0)" xlink:href="#aI"/><use transform="matrix(0.05,0,0,0.05,41.95,0)" xlink:href="#aN"/><use transform="matrix(0.05,0,0,0.05,53.95,0)" xlink:href="#bs"/><use transform="matrix(0.05,0,0,0.05,66.9,0)" xlink:href="#cp"/></g><g id="V"><use transform="matrix(0.05555555555555555,0,0,0.05555555555555555,0,0)" xlink:href="#by"/><use transform="matrix(0.05555555555555555,0,0,0.05555555555555555,11.499999999999998,0)" xlink:href="#bi"/><use transform="matrix(0.05555555555555555,0,0,0.05555555555555555,22.611111111111107,0)" xlink:href="#bf"/></g><g id="W"><use transform="matrix(0.05555555555555555,0,0,0.05555555555555555,0,0)" xlink:href="#bz"/><use transform="matrix(0.05555555555555555,0,0,0.05555555555555555,14.388888888888888,0)" xlink:href="#bl"/></g><path fill="#1d262b" d="M137 0h-34L2-248h35l83 218 83-218h36" id="cq"/><g id="X"><use transform="matrix(0.05,0,0,0.05,0,0)" xlink:href="#aM"/><use transform="matrix(0.05,0,0,0.05,14.950000000000001,0)" xlink:href="#aL"/><use transform="matrix(0.05,0,0,0.05,28.950000000000003,0)" xlink:href="#cq"/><use transform="matrix(0.05,0,0,0.05,40.95,0)" xlink:href="#aN"/></g><g id="Y"><use transform="matrix(0.05,0,0,0.05,0,0)" xlink:href="#aN"/><use transform="matrix(0.05,0,0,0.05,12,0)" xlink:href="#aM"/><use transform="matrix(0.05,0,0,0.05,26.950000000000003,0)" xlink:href="#bu"/><use transform="matrix(0.05,0,0,0.05,38.95,0)" xlink:href="#bq"/><use transform="matrix(0.05,0,0,0.05,43.95,0)" xlink:href="#bO"/></g><g id="Z"><use transform="matrix(0.05,0,0,0.05,0,0)" xlink:href="#aK"/><use transform="matrix(0.05,0,0,0.05,10.600000000000001,0)" xlink:href="#aL"/></g><path fill="#1d262b" d="M109-170H84l-4-78h32zm-65 0H19l-4-78h33" id="cr"/><g id="aa"><use transform="matrix(0.05,0,0,0.05,0,0)" xlink:href="#cr"/><use transform="matrix(0.05,0,0,0.05,6.3500000000000005,0)" xlink:href="#bj"/><use transform="matrix(0.05,0,0,0.05,18.35,0)" xlink:href="#aN"/><use transform="matrix(0.05,0,0,0.05,30.35,0)" xlink:href="#bz"/><use transform="matrix(0.05,0,0,0.05,43.300000000000004,0)" xlink:href="#bs"/><use transform="matrix(0.05,0,0,0.05,56.25,0)" xlink:href="#bq"/><use transform="matrix(0.05,0,0,0.05,61.25,0)" xlink:href="#bz"/><use transform="matrix(0.05,0,0,0.05,74.2,0)" xlink:href="#bv"/></g><g id="ab"><use transform="matrix(0.05,0,0,0.05,0,0)" xlink:href="#bj"/><use transform="matrix(0.05,0,0,0.05,12,0)" xlink:href="#aL"/><use transform="matrix(0.05,0,0,0.05,26,0)" xlink:href="#cr"/></g><g id="ac"><use transform="matrix(0.05,0,0,0.05,0,0)" xlink:href="#bt"/><use transform="matrix(0.05,0,0,0.05,10.950000000000001,0)" xlink:href="#aL"/><use transform="matrix(0.05,0,0,0.05,24.950000000000003,0)" xlink:href="#bO"/><use transform="matrix(0.05,0,0,0.05,34.95,0)" xlink:href="#bs"/><use transform="matrix(0.05,0,0,0.05,47.900000000000006,0)" xlink:href="#aN"/><use transform="matrix(0.05,0,0,0.05,59.900000000000006,0)" xlink:href="#aO"/></g><g id="ad"><use transform="matrix(0.05,0,0,0.05,0,0)" xlink:href="#bq"/><use transform="matrix(0.05,0,0,0.05,5,0)" xlink:href="#bz"/></g><g id="ae"><use transform="matrix(0.05,0,0,0.05,0,0)" xlink:href="#aH"/><use transform="matrix(0.05,0,0,0.05,12.950000000000001,0)" xlink:href="#aJ"/></g><g id="af"><use transform="matrix(0.05,0,0,0.05,0,0)" xlink:href="#aM"/><use transform="matrix(0.05,0,0,0.05,14.950000000000001,0)" xlink:href="#bu"/><use transform="matrix(0.05,0,0,0.05,26.950000000000003,0)" xlink:href="#bq"/><use transform="matrix(0.05,0,0,0.05,31.950000000000003,0)" xlink:href="#bO"/><use transform="matrix(0.05,0,0,0.05,41.95,0)" xlink:href="#bd"/><use transform="matrix(0.05,0,0,0.05,53.95,0)" xlink:href="#aL"/><use transform="matrix(0.05,0,0,0.05,67.95,0)" xlink:href="#co"/></g><g id="ag"><use transform="matrix(0.06234567901234565,0,0,0.06234567901234565,0,0)" xlink:href="#aH"/><use transform="matrix(0.06234567901234565,0,0,0.06234567901234565,16.147530864197524,0)" xlink:href="#aL"/><use transform="matrix(0.06234567901234565,0,0,0.06234567901234565,33.604320987654305,0)" xlink:href="#bz"/><use transform="matrix(0.06234567901234565,0,0,0.06234567901234565,49.751851851851825,0)" xlink:href="#aJ"/><use transform="matrix(0.06234567901234565,0,0,0.06234567901234565,64.71481481481479,0)" xlink:href="#bq"/><use transform="matrix(0.06234567901234565,0,0,0.06234567901234565,70.94938271604936,0)" xlink:href="#bv"/><use transform="matrix(0.06234567901234565,0,0,0.06234567901234565,88.40617283950614,0)" xlink:href="#bz"/><use transform="matrix(0.06234567901234565,0,0,0.06234567901234565,104.55370370370366,0)" xlink:href="#aM"/><use transform="matrix(0.06234567901234565,0,0,0.06234567901234565,123.19506172839502,0)" xlink:href="#aN"/><use transform="matrix(0.06234567901234565,0,0,0.06234567901234565,138.15802469135798,0)" xlink:href="#bz"/><use transform="matrix(0.06234567901234565,0,0,0.06234567901234565,154.30555555555551,0)" xlink:href="#aK"/></g><g id="ah"><use transform="matrix(0.06234567901234565,0,0,0.06234567901234565,0,0)" xlink:href="#bj"/><use transform="matrix(0.06234567901234565,0,0,0.06234567901234565,14.962962962962957,0)" xlink:href="#aN"/><use transform="matrix(0.06234567901234565,0,0,0.06234567901234565,29.925925925925913,0)" xlink:href="#bz"/><use transform="matrix(0.06234567901234565,0,0,0.06234567901234565,46.07345679012344,0)" xlink:href="#bs"/><use transform="matrix(0.06234567901234565,0,0,0.06234567901234565,62.220987654320965,0)" xlink:href="#bq"/><use transform="matrix(0.06234567901234565,0,0,0.06234567901234565,68.45555555555553,0)" xlink:href="#bz"/><use transform="matrix(0.06234567901234565,0,0,0.06234567901234565,84.60308641975305,0)" xlink:href="#bv"/></g><g id="ai"><use transform="matrix(0.06234567901234565,0,0,0.06234567901234565,0,0)" xlink:href="#bj"/><use transform="matrix(0.06234567901234565,0,0,0.06234567901234565,14.962962962962957,0)" xlink:href="#aI"/><use transform="matrix(0.06234567901234565,0,0,0.06234567901234565,31.110493827160482,0)" xlink:href="#aO"/><use transform="matrix(0.06234567901234565,0,0,0.06234567901234565,47.258024691358,0)" xlink:href="#aH"/><use transform="matrix(0.06234567901234565,0,0,0.06234567901234565,63.40555555555552,0)" xlink:href="#bw"/><use transform="matrix(0.06234567901234565,0,0,0.06234567901234565,79.55308641975304,0)" xlink:href="#bu"/><use transform="matrix(0.06234567901234565,0,0,0.06234567901234565,94.516049382716,0)" xlink:href="#aJ"/><use transform="matrix(0.06234567901234565,0,0,0.06234567901234565,109.47901234567897,0)" xlink:href="#aN"/></g><g id="aj"><use transform="matrix(0.06234567901234565,0,0,0.06234567901234565,0,0)" xlink:href="#aL"/><use transform="matrix(0.06234567901234565,0,0,0.06234567901234565,17.456790123456784,0)" xlink:href="#aO"/><use transform="matrix(0.06234567901234565,0,0,0.06234567901234565,33.604320987654305,0)" xlink:href="#bs"/><use transform="matrix(0.06234567901234565,0,0,0.06234567901234565,49.751851851851825,0)" xlink:href="#aN"/><use transform="matrix(0.06234567901234565,0,0,0.06234567901234565,64.71481481481479,0)" xlink:href="#aO"/></g><g id="ak"><use transform="matrix(0.05,0,0,0.05,0,0)" xlink:href="#aH"/><use transform="matrix(0.05,0,0,0.05,12.950000000000001,0)" xlink:href="#aL"/><use transform="matrix(0.05,0,0,0.05,26.950000000000003,0)" xlink:href="#bz"/><use transform="matrix(0.05,0,0,0.05,39.900000000000006,0)" xlink:href="#bt"/><use transform="matrix(0.05,0,0,0.05,50.85000000000001,0)" xlink:href="#bq"/><use transform="matrix(0.05,0,0,0.05,55.85,0)" xlink:href="#aO"/><use transform="matrix(0.05,0,0,0.05,68.80000000000001,0)" xlink:href="#aM"/></g><g id="al"><use transform="matrix(0.05,0,0,0.05,0,0)" xlink:href="#aJ"/><use transform="matrix(0.05,0,0,0.05,12,0)" xlink:href="#aI"/><use transform="matrix(0.05,0,0,0.05,24.950000000000003,0)" xlink:href="#aO"/><use transform="matrix(0.05,0,0,0.05,37.900000000000006,0)" xlink:href="#bv"/><use transform="matrix(0.05,0,0,0.05,51.900000000000006,0)" xlink:href="#aN"/><use transform="matrix(0.05,0,0,0.05,63.900000000000006,0)" xlink:href="#aL"/><use transform="matrix(0.05,0,0,0.05,77.9,0)" xlink:href="#bz"/></g><g id="am"><use transform="matrix(0.05,0,0,0.05,0,0)" xlink:href="#bq"/><use transform="matrix(0.05,0,0,0.05,5,0)" xlink:href="#aJ"/></g><g id="an"><use transform="matrix(0.05,0,0,0.05,0,0)" xlink:href="#bu"/><use transform="matrix(0.05,0,0,0.05,12,0)" xlink:href="#aJ"/><use transform="matrix(0.05,0,0,0.05,24,0)" xlink:href="#aJ"/><use transform="matrix(0.05,0,0,0.05,36,0)" xlink:href="#aL"/><use transform="matrix(0.05,0,0,0.05,50,0)" xlink:href="#aH"/><use transform="matrix(0.05,0,0,0.05,62.95,0)" xlink:href="#bq"/><use transform="matrix(0.05,0,0,0.05,67.95,0)" xlink:href="#bu"/><use transform="matrix(0.05,0,0,0.05,78.60000000000001,0)" xlink:href="#aK"/><use transform="matrix(0.05,0,0,0.05,89.55000000000001,0)" xlink:href="#aN"/><use transform="matrix(0.05,0,0,0.05,101.55000000000001,0)" xlink:href="#bs"/></g><g id="ao"><use transform="matrix(0.05,0,0,0.05,0,0)" xlink:href="#bN"/><use transform="matrix(0.05,0,0,0.05,16.95,0)" xlink:href="#bq"/><use transform="matrix(0.05,0,0,0.05,21.95,0)" xlink:href="#aK"/><use transform="matrix(0.05,0,0,0.05,32.9,0)" xlink:href="#bw"/></g><g id="ap"><use transform="matrix(0.05,0,0,0.05,0,0)" xlink:href="#aK"/><use transform="matrix(0.05,0,0,0.05,10.950000000000001,0)" xlink:href="#bw"/><use transform="matrix(0.05,0,0,0.05,23.900000000000002,0)" xlink:href="#aN"/></g><g id="aq"><use transform="matrix(0.05,0,0,0.05,0,0)" xlink:href="#aO"/><use transform="matrix(0.05,0,0,0.05,12.950000000000001,0)" xlink:href="#aN"/><use transform="matrix(0.05,0,0,0.05,24.950000000000003,0)" xlink:href="#bj"/></g><path fill="#1d262b" d="M0 4l72-265h28L28 4H0" id="cs"/><g id="ar"><use transform="matrix(0.05,0,0,0.05,0,0)" xlink:href="#aO"/><use transform="matrix(0.05,0,0,0.05,12.950000000000001,0)" xlink:href="#aN"/><use transform="matrix(0.05,0,0,0.05,24.950000000000003,0)" xlink:href="#bj"/><use transform="matrix(0.05,0,0,0.05,36.95,0)" xlink:href="#cs"/><use transform="matrix(0.05,0,0,0.05,41.95,0)" xlink:href="#bs"/><use transform="matrix(0.05,0,0,0.05,54.900000000000006,0)" xlink:href="#bq"/><use transform="matrix(0.05,0,0,0.05,59.900000000000006,0)" xlink:href="#aJ"/><use transform="matrix(0.05,0,0,0.05,71.9,0)" xlink:href="#aK"/><use transform="matrix(0.05,0,0,0.05,82.85000000000001,0)" xlink:href="#aO"/><use transform="matrix(0.05,0,0,0.05,95.80000000000001,0)" xlink:href="#bq"/><use transform="matrix(0.05,0,0,0.05,100.80000000000001,0)" xlink:href="#bd"/><use transform="matrix(0.05,0,0,0.05,112.80000000000001,0)" xlink:href="#aI"/><use transform="matrix(0.05,0,0,0.05,125.75,0)" xlink:href="#aK"/><use transform="matrix(0.05,0,0,0.05,136.35000000000002,0)" xlink:href="#aL"/><use transform="matrix(0.05,0,0,0.05,150.35000000000002,0)" xlink:href="#aO"/></g><path fill="#1d262b" d="M194 0L95-120 63-95V0H30v-248h33v124l119-124h40L117-140 236 0h-42" id="ct"/><g id="as"><use transform="matrix(0.05,0,0,0.05,0,0)" xlink:href="#aK"/><use transform="matrix(0.05,0,0,0.05,10.950000000000001,0)" xlink:href="#aO"/><use transform="matrix(0.05,0,0,0.05,23.900000000000002,0)" xlink:href="#bu"/><use transform="matrix(0.05,0,0,0.05,35.900000000000006,0)" xlink:href="#aH"/><use transform="matrix(0.05,0,0,0.05,48.85000000000001,0)" xlink:href="#ct"/><use transform="matrix(0.05,0,0,0.05,60.85,0)" xlink:href="#aN"/><use transform="matrix(0.05,0,0,0.05,72.85000000000001,0)" xlink:href="#aO"/></g><g id="at"><use transform="matrix(0.05,0,0,0.05,0,0)" xlink:href="#bt"/><use transform="matrix(0.05,0,0,0.05,10.950000000000001,0)" xlink:href="#aN"/><use transform="matrix(0.05,0,0,0.05,22.950000000000003,0)" xlink:href="#aN"/><use transform="matrix(0.05,0,0,0.05,34.95,0)" xlink:href="#aJ"/></g><g id="au"><use transform="matrix(0.05,0,0,0.05,0,0)" xlink:href="#bt"/><use transform="matrix(0.05,0,0,0.05,10.950000000000001,0)" xlink:href="#aN"/><use transform="matrix(0.05,0,0,0.05,22.950000000000003,0)" xlink:href="#aN"/></g><g id="av"><use transform="matrix(0.05,0,0,0.05,0,0)" xlink:href="#aJ"/><use transform="matrix(0.05,0,0,0.05,12,0)" xlink:href="#aH"/><use transform="matrix(0.05,0,0,0.05,24.950000000000003,0)" xlink:href="#bw"/><use transform="matrix(0.05,0,0,0.05,37.900000000000006,0)" xlink:href="#aN"/><use transform="matrix(0.05,0,0,0.05,49.900000000000006,0)" xlink:href="#bs"/><use transform="matrix(0.05,0,0,0.05,62.85,0)" xlink:href="#aI"/><use transform="matrix(0.05,0,0,0.05,75.80000000000001,0)" xlink:href="#bO"/><use transform="matrix(0.05,0,0,0.05,85.80000000000001,0)" xlink:href="#aN"/></g><g id="aw"><use transform="matrix(0.05,0,0,0.05,0,0)" xlink:href="#bt"/><use transform="matrix(0.05,0,0,0.05,10.950000000000001,0)" xlink:href="#bq"/><use transform="matrix(0.05,0,0,0.05,15.950000000000001,0)" xlink:href="#bO"/><use transform="matrix(0.05,0,0,0.05,25.950000000000003,0)" xlink:href="#aN"/></g><g id="ax"><use transform="matrix(0.05,0,0,0.05,0,0)" xlink:href="#bu"/><use transform="matrix(0.05,0,0,0.05,12,0)" xlink:href="#aO"/><use transform="matrix(0.05,0,0,0.05,24.950000000000003,0)" xlink:href="#aN"/></g><g id="ay"><use transform="matrix(0.05,0,0,0.05,0,0)" xlink:href="#bt"/><use transform="matrix(0.05,0,0,0.05,10.950000000000001,0)" xlink:href="#aN"/><use transform="matrix(0.05,0,0,0.05,22.950000000000003,0)" xlink:href="#aN"/><use transform="matrix(0.05,0,0,0.05,34.95,0)" xlink:href="#aJ"/></g><g id="az"><use transform="matrix(0.05,0,0,0.05,0,0)" xlink:href="#aH"/><use transform="matrix(0.05,0,0,0.05,12.950000000000001,0)" xlink:href="#aL"/><use transform="matrix(0.05,0,0,0.05,26.950000000000003,0)" xlink:href="#aO"/><use transform="matrix(0.05,0,0,0.05,39.900000000000006,0)" xlink:href="#aO"/><use transform="matrix(0.05,0,0,0.05,52.85,0)" xlink:href="#aN"/><use transform="matrix(0.05,0,0,0.05,64.85000000000001,0)" xlink:href="#aH"/><use transform="matrix(0.05,0,0,0.05,77.80000000000001,0)" xlink:href="#aK"/></g><use transform="matrix(0.05,0,0,0.05,0,0)" xlink:href="#cp" id="aA"/><g id="aB"><use transform="matrix(0.05,0,0,0.05,0,0)" xlink:href="#aJ"/><use transform="matrix(0.05,0,0,0.05,12,0)" xlink:href="#aI"/><use transform="matrix(0.05,0,0,0.05,24.950000000000003,0)" xlink:href="#aO"/><use transform="matrix(0.05,0,0,0.05,37.900000000000006,0)" xlink:href="#bv"/><use transform="matrix(0.05,0,0,0.05,51.900000000000006,0)" xlink:href="#aN"/><use transform="matrix(0.05,0,0,0.05,63.900000000000006,0)" xlink:href="#aL"/><use transform="matrix(0.05,0,0,0.05,77.9,0)" xlink:href="#bz"/><use transform="matrix(0.05,0,0,0.05,90.85000000000001,0)" xlink:href="#cs"/><use transform="matrix(0.05,0,0,0.05,95.85000000000001,0)" xlink:href="#aO"/><use transform="matrix(0.05,0,0,0.05,108.80000000000001,0)" xlink:href="#aN"/><use transform="matrix(0.05,0,0,0.05,120.80000000000001,0)" xlink:href="#bj"/></g><g id="aC"><use transform="matrix(0.05,0,0,0.05,0,0)" xlink:href="#bq"/><use transform="matrix(0.05,0,0,0.05,5,0)" xlink:href="#bz"/><use transform="matrix(0.05,0,0,0.05,17.950000000000003,0)" xlink:href="#bt"/><use transform="matrix(0.05,0,0,0.05,28.900000000000006,0)" xlink:href="#aL"/></g><g id="aD"><use transform="matrix(0.05,0,0,0.05,0,0)" xlink:href="#aM"/><use transform="matrix(0.05,0,0,0.05,14.950000000000001,0)" xlink:href="#bu"/><use transform="matrix(0.05,0,0,0.05,25.6,0)" xlink:href="#aK"/><use transform="matrix(0.05,0,0,0.05,36.550000000000004,0)" xlink:href="#aH"/><use transform="matrix(0.05,0,0,0.05,49.50000000000001,0)" xlink:href="#bw"/><use transform="matrix(0.05,0,0,0.05,62.45000000000002,0)" xlink:href="#cp"/></g><g id="aE"><use transform="matrix(0.056172839506172814,0,0,0.056172839506172814,0,0)" xlink:href="#by"/><use transform="matrix(0.056172839506172814,0,0,0.056172839506172814,11.627777777777773,0)" xlink:href="#bi"/><use transform="matrix(0.056172839506172814,0,0,0.056172839506172814,22.862345679012336,0)" xlink:href="#bf"/></g><use transform="matrix(0.05,0,0,0.05,0,0)" xlink:href="#cp" id="aF"/><g id="aG"><use transform="matrix(0.056172839506172835,0,0,0.056172839506172835,0,0)" xlink:href="#bz"/><use transform="matrix(0.056172839506172835,0,0,0.056172839506172835,14.548765432098763,0)" xlink:href="#bl"/></g></defs></g></svg>